<svg width="946" height="1469" viewBox="0 0 946 1469" fill="none" xmlns="http://www.w3.org/2000/svg">
<rect width="946" height="1469" fill="#1E1E1E"/>
<g clip-path="url(#clip0_0_1)">
<path d="M391 259H471V651H391V455V259Z" fill="black"/>
<path d="M194 339V259H417V339H305.5H194Z" fill="black"/>
<path d="M33 422H112V524H33V473V422Z" fill="black"/>
<path d="M463 815V735H744V815H603.5H463Z" fill="black"/>
<path d="M152 815V735H369V815H260.5H152Z" fill="black"/>
<path d="M152 973V893H281V973H216.5H152Z" fill="black"/>
<path d="M196 685V606H269V645.5V685H232.5H196Z" fill="black"/>
<path d="M65 1131V1051H287V1131H176H65Z" fill="black"/>
<path d="M423 735H503V1111H423V923V735Z" fill="black"/>
<path d="M625 735H705V1111H625V923V735Z" fill="black"/>
<path d="M827 896H867H907V1111H827V1003.5V896Z" fill="black"/>
<path d="M765.869 259.646C767.579 258.401 769.639 257.73 771.755 257.73L876.984 257.73C886.742 257.73 890.722 270.275 882.75 275.901L554.529 507.509C550.002 510.704 543.74 509.608 540.566 505.066L506.228 455.921C503.064 451.393 504.17 445.159 508.697 441.996L675.102 325.727L765.869 259.646Z" fill="black"/>
<path d="M904.852 668.752C911.399 674.974 906.995 686 897.963 686L811.995 686C809.43 686 806.963 685.015 805.105 683.248L564.274 454.316C560.261 450.501 560.112 444.151 563.942 440.152L605.415 396.844C609.235 392.855 615.565 392.718 619.554 396.538L766.169 536.94L904.852 668.752Z" fill="black"/>
<path d="M493 0H573V651H493V325.5V0Z" fill="black"/>
<rect x="423" y="1072" width="80" height="59" rx="10" fill="black"/>
<rect x="827" y="1072" width="80" height="59" rx="10" fill="black"/>
<path d="M391 636C391 630.477 395.477 626 401 626H461C466.523 626 471 630.477 471 636V675C471 680.523 466.523 685 461 685H401C395.477 685 391 680.523 391 675V636Z" fill="black"/>
<path d="M342 815C336.477 815 332 810.523 332 805V745C332 739.477 336.477 735 342 735H381C386.523 735 391 739.477 391 745V805C391 810.523 386.523 815 381 815H342Z" fill="black"/>
<path d="M46 1131C40.4772 1131 36 1126.52 36 1121L36 1061C36 1055.48 40.4772 1051 46 1051H85C90.5228 1051 95 1055.48 95 1061V1121C95 1126.52 90.5228 1131 85 1131H46Z" fill="black"/>
<path d="M493 636C493 630.477 497.477 626 503 626H563C568.523 626 573 630.477 573 636V675C573 680.523 568.523 685 563 685H503C497.477 685 493 680.523 493 675V636Z" fill="black"/>
<rect x="625" y="1072" width="80" height="59" rx="10" fill="black"/>
<path d="M33 422.036C33 400.626 37.1707 379.426 45.2741 359.645C53.3775 339.865 65.2548 321.892 80.2278 306.752C95.2009 291.613 112.977 279.604 132.54 271.41C152.103 263.217 173.071 259 194.246 259V338.888C183.447 338.888 172.753 341.038 162.776 345.217C152.799 349.396 143.733 355.52 136.097 363.241C128.46 370.963 122.403 380.129 118.27 390.217C114.138 400.305 112.011 411.117 112.011 422.036L33 422.036Z" fill="black"/>
<path d="M470 523.718C469.565 545.123 446.741 562.39 438 581.997C424 592.5 412.717 598.677 397 613.5C381.283 628.323 372 651.5 334 670.5C313.7 678.283 286.792 685.445 265 685.003L267 606C278.114 606.226 288.784 603.43 299.137 599.461C309.49 595.491 320.742 589.557 328.758 581.997C339.797 574.5 367.542 549.5 372 539.5C391.5 515.5 391.278 497.417 391.5 486.5L470 523.718Z" fill="black"/>
<path d="M744 735C765.41 735 786.611 739.171 806.391 747.274C826.172 755.378 844.145 767.255 859.284 782.228C874.423 797.201 886.433 814.977 894.626 834.54C902.819 854.103 907.036 875.071 907.036 896.246H827.149C827.149 885.447 824.998 874.753 820.819 864.776C816.641 854.799 810.516 845.733 802.795 838.097C795.074 830.46 785.908 824.403 775.82 820.27C765.732 816.138 754.919 814.5 744 814.5V735Z" fill="black"/>
<path d="M196.036 685.246C174.626 685.246 153.426 681.075 133.645 672.972C113.865 664.868 95.8916 652.991 80.7522 638.018C65.6129 623.045 53.6037 605.269 45.4104 585.706C37.217 566.143 33 545.175 33 524H112C112 534.799 115.038 545.493 119.217 555.47C123.396 565.447 129.52 574.513 137.241 582.149C144.963 589.785 154.129 595.843 164.217 599.976C174.305 604.108 185.117 606.235 196.036 606.235L196.036 685.246Z" fill="black"/>
<path d="M152 973C118.583 973 86.5341 960.463 62.9045 938.146C39.275 915.829 26 885.561 26 854C26 822.439 39.275 792.171 62.9045 769.854C86.5341 747.537 118.583 735 152 735V815.162C141.094 815.162 130.634 819.254 122.922 826.537C115.21 833.821 110.877 843.699 110.877 854C110.877 864.301 115.21 874.179 122.922 881.463C130.634 888.746 141.094 892.838 152 892.838L152 973Z" fill="black"/>
<path d="M281 893C314.417 893 346.466 905.537 370.095 927.854C393.725 950.171 407 980.439 407 1012C407 1043.56 393.725 1073.83 370.095 1096.15C346.466 1118.46 314.417 1131 281 1131V1050.84C291.906 1050.84 302.366 1046.75 310.078 1039.46C317.79 1032.18 322.123 1022.3 322.123 1012C322.123 1001.7 317.79 991.821 310.078 984.537C302.366 977.254 291.906 973.162 281 973.162L281 893Z" fill="black"/>
<path d="M61.0753 1234.82V1293H54.3707V1234.82H61.0753ZM86.196 1294.02C83.4309 1294.02 80.9214 1293.5 78.6676 1292.46C76.4138 1291.4 74.6241 1289.88 73.2983 1287.89C71.9725 1285.88 71.3097 1283.45 71.3097 1280.61C71.3097 1278.11 71.8021 1276.09 72.7869 1274.53C73.7718 1272.96 75.0881 1271.73 76.7358 1270.84C78.3835 1269.95 80.2017 1269.29 82.1903 1268.85C84.1979 1268.4 86.215 1268.04 88.2415 1267.77C90.893 1267.43 93.0426 1267.18 94.6903 1267.01C96.357 1266.82 97.5691 1266.5 98.3267 1266.07C99.1032 1265.63 99.4915 1264.87 99.4915 1263.8V1263.57C99.4915 1260.77 98.7244 1258.59 97.1903 1257.03C95.6752 1255.48 93.3741 1254.7 90.2869 1254.7C87.0862 1254.7 84.5767 1255.41 82.7585 1256.81C80.9403 1258.21 79.6619 1259.7 78.9233 1261.3L72.5597 1259.02C73.696 1256.37 75.2112 1254.31 77.1051 1252.83C79.018 1251.33 81.1013 1250.29 83.3551 1249.7C85.6278 1249.1 87.8627 1248.8 90.0597 1248.8C91.4612 1248.8 93.071 1248.97 94.8892 1249.31C96.7263 1249.63 98.4972 1250.3 100.202 1251.32C101.925 1252.35 103.355 1253.89 104.491 1255.95C105.628 1258.02 106.196 1260.78 106.196 1264.25V1293H99.4915V1287.09H99.1506C98.696 1288.04 97.9384 1289.05 96.8778 1290.13C95.8172 1291.21 94.4063 1292.13 92.6449 1292.89C90.8835 1293.64 88.7339 1294.02 86.196 1294.02ZM87.2188 1288C89.8703 1288 92.1051 1287.48 93.9233 1286.44C95.7604 1285.4 97.143 1284.05 98.071 1282.4C99.018 1280.76 99.4915 1279.02 99.4915 1277.2V1271.07C99.2074 1271.41 98.5824 1271.72 97.6165 1272.01C96.6695 1272.27 95.571 1272.51 94.321 1272.72C93.09 1272.91 91.8873 1273.08 90.7131 1273.23C89.5578 1273.36 88.6203 1273.47 87.9006 1273.57C86.1581 1273.8 84.5294 1274.16 83.0142 1274.68C81.518 1275.17 80.3059 1275.92 79.3778 1276.92C78.4688 1277.91 78.0142 1279.25 78.0142 1280.95C78.0142 1283.28 78.8759 1285.05 80.5994 1286.24C82.3419 1287.41 84.5483 1288 87.2188 1288ZM125.138 1266.75V1293H118.433V1249.36H124.911V1256.18H125.479C126.501 1253.97 128.054 1252.19 130.138 1250.84C132.221 1249.48 134.911 1248.8 138.206 1248.8C141.161 1248.8 143.746 1249.4 145.962 1250.61C148.178 1251.81 149.901 1253.62 151.132 1256.07C152.363 1258.49 152.979 1261.56 152.979 1265.27V1293H146.274V1265.73C146.274 1262.3 145.384 1259.63 143.604 1257.72C141.823 1255.78 139.38 1254.82 136.274 1254.82C134.134 1254.82 132.221 1255.28 130.536 1256.21C128.869 1257.14 127.553 1258.49 126.587 1260.27C125.621 1262.05 125.138 1264.21 125.138 1266.75ZM181.707 1293.91C178.071 1293.91 174.861 1292.99 172.077 1291.15C169.293 1289.3 167.115 1286.68 165.543 1283.31C163.971 1279.92 163.185 1275.92 163.185 1271.3C163.185 1266.71 163.971 1262.73 165.543 1259.36C167.115 1255.99 169.302 1253.39 172.105 1251.55C174.908 1249.71 178.147 1248.8 181.821 1248.8C184.662 1248.8 186.906 1249.27 188.554 1250.22C190.221 1251.14 191.49 1252.2 192.361 1253.4C193.251 1254.57 193.942 1255.54 194.435 1256.3H195.003V1234.82H201.707V1293H195.23V1286.3H194.435C193.942 1287.09 193.241 1288.09 192.332 1289.31C191.423 1290.5 190.126 1291.57 188.44 1292.52C186.755 1293.45 184.51 1293.91 181.707 1293.91ZM182.616 1287.89C185.306 1287.89 187.579 1287.19 189.435 1285.78C191.291 1284.36 192.702 1282.4 193.668 1279.9C194.634 1277.38 195.116 1274.48 195.116 1271.18C195.116 1267.92 194.643 1265.07 193.696 1262.63C192.749 1260.17 191.348 1258.26 189.491 1256.89C187.635 1255.51 185.344 1254.82 182.616 1254.82C179.776 1254.82 177.408 1255.55 175.514 1257.01C173.639 1258.45 172.228 1260.41 171.281 1262.89C170.353 1265.35 169.889 1268.11 169.889 1271.18C169.889 1274.29 170.363 1277.11 171.31 1279.65C172.276 1282.17 173.696 1284.17 175.571 1285.67C177.465 1287.15 179.813 1287.89 182.616 1287.89ZM238.327 1293V1234.82H245.031V1256.3H245.599C246.092 1255.54 246.774 1254.57 247.645 1253.4C248.535 1252.2 249.804 1251.14 251.452 1250.22C253.118 1249.27 255.372 1248.8 258.213 1248.8C261.887 1248.8 265.126 1249.71 267.929 1251.55C270.732 1253.39 272.92 1255.99 274.491 1259.36C276.063 1262.73 276.849 1266.71 276.849 1271.3C276.849 1275.92 276.063 1279.92 274.491 1283.31C272.92 1286.68 270.741 1289.3 267.957 1291.15C265.173 1292.99 261.963 1293.91 258.327 1293.91C255.524 1293.91 253.279 1293.45 251.594 1292.52C249.908 1291.57 248.611 1290.5 247.702 1289.31C246.793 1288.09 246.092 1287.09 245.599 1286.3H244.804V1293H238.327ZM244.918 1271.18C244.918 1274.48 245.401 1277.38 246.366 1279.9C247.332 1282.4 248.743 1284.36 250.599 1285.78C252.455 1287.19 254.728 1287.89 257.418 1287.89C260.221 1287.89 262.56 1287.15 264.435 1285.67C266.329 1284.17 267.749 1282.17 268.696 1279.65C269.662 1277.11 270.145 1274.29 270.145 1271.18C270.145 1268.11 269.671 1265.35 268.724 1262.89C267.796 1260.41 266.385 1258.45 264.491 1257.01C262.616 1255.55 260.259 1254.82 257.418 1254.82C254.69 1254.82 252.399 1255.51 250.543 1256.89C248.687 1258.26 247.285 1260.17 246.338 1262.63C245.391 1265.07 244.918 1267.92 244.918 1271.18ZM314.605 1275.16V1249.36H321.31V1293H314.605V1285.61H314.151C313.128 1287.83 311.537 1289.71 309.378 1291.27C307.219 1292.8 304.491 1293.57 301.196 1293.57C298.469 1293.57 296.045 1292.97 293.923 1291.78C291.802 1290.57 290.135 1288.75 288.923 1286.32C287.711 1283.88 287.105 1280.8 287.105 1277.09V1249.36H293.81V1276.64C293.81 1279.82 294.7 1282.36 296.48 1284.25C298.279 1286.14 300.571 1287.09 303.355 1287.09C305.022 1287.09 306.717 1286.66 308.44 1285.81C310.183 1284.96 311.641 1283.65 312.815 1281.89C314.009 1280.13 314.605 1277.89 314.605 1275.16ZM333.589 1293V1249.36H340.294V1293H333.589ZM336.999 1242.09C335.692 1242.09 334.565 1241.65 333.618 1240.76C332.69 1239.87 332.226 1238.8 332.226 1237.55C332.226 1236.3 332.69 1235.23 333.618 1234.34C334.565 1233.45 335.692 1233 336.999 1233C338.305 1233 339.423 1233.45 340.351 1234.34C341.298 1235.23 341.771 1236.3 341.771 1237.55C341.771 1238.8 341.298 1239.87 340.351 1240.76C339.423 1241.65 338.305 1242.09 336.999 1242.09ZM359.278 1234.82V1293H352.574V1234.82H359.278ZM388.036 1293.91C384.399 1293.91 381.189 1292.99 378.405 1291.15C375.621 1289.3 373.443 1286.68 371.871 1283.31C370.299 1279.92 369.513 1275.92 369.513 1271.3C369.513 1266.71 370.299 1262.73 371.871 1259.36C373.443 1255.99 375.63 1253.39 378.433 1251.55C381.236 1249.71 384.475 1248.8 388.149 1248.8C390.99 1248.8 393.234 1249.27 394.882 1250.22C396.549 1251.14 397.818 1252.2 398.689 1253.4C399.579 1254.57 400.27 1255.54 400.763 1256.3H401.331V1234.82H408.036V1293H401.558V1286.3H400.763C400.27 1287.09 399.57 1288.09 398.661 1289.31C397.751 1290.5 396.454 1291.57 394.768 1292.52C393.083 1293.45 390.839 1293.91 388.036 1293.91ZM388.945 1287.89C391.634 1287.89 393.907 1287.19 395.763 1285.78C397.619 1284.36 399.03 1282.4 399.996 1279.9C400.962 1277.38 401.445 1274.48 401.445 1271.18C401.445 1267.92 400.971 1265.07 400.024 1262.63C399.077 1260.17 397.676 1258.26 395.82 1256.89C393.964 1255.51 391.672 1254.82 388.945 1254.82C386.104 1254.82 383.736 1255.55 381.842 1257.01C379.967 1258.45 378.556 1260.41 377.609 1262.89C376.681 1265.35 376.217 1268.11 376.217 1271.18C376.217 1274.29 376.691 1277.11 377.638 1279.65C378.604 1282.17 380.024 1284.17 381.899 1285.67C383.793 1287.15 386.142 1287.89 388.945 1287.89ZM421.246 1293V1249.36H427.95V1293H421.246ZM424.655 1242.09C423.348 1242.09 422.221 1241.65 421.274 1240.76C420.346 1239.87 419.882 1238.8 419.882 1237.55C419.882 1236.3 420.346 1235.23 421.274 1234.34C422.221 1233.45 423.348 1233 424.655 1233C425.962 1233 427.079 1233.45 428.007 1234.34C428.954 1235.23 429.428 1236.3 429.428 1237.55C429.428 1238.8 428.954 1239.87 428.007 1240.76C427.079 1241.65 425.962 1242.09 424.655 1242.09ZM446.935 1266.75V1293H440.23V1249.36H446.707V1256.18H447.276C448.298 1253.97 449.851 1252.19 451.935 1250.84C454.018 1249.48 456.707 1248.8 460.003 1248.8C462.957 1248.8 465.543 1249.4 467.759 1250.61C469.974 1251.81 471.698 1253.62 472.929 1256.07C474.16 1258.49 474.776 1261.56 474.776 1265.27V1293H468.071V1265.73C468.071 1262.3 467.181 1259.63 465.401 1257.72C463.62 1255.78 461.177 1254.82 458.071 1254.82C455.931 1254.82 454.018 1255.28 452.332 1256.21C450.666 1257.14 449.349 1258.49 448.384 1260.27C447.418 1262.05 446.935 1264.21 446.935 1266.75ZM504.641 1310.27C501.402 1310.27 498.618 1309.86 496.288 1309.02C493.959 1308.21 492.018 1307.13 490.464 1305.78C488.93 1304.46 487.709 1303.04 486.8 1301.52L492.141 1297.77C492.747 1298.57 493.514 1299.48 494.442 1300.5C495.37 1301.54 496.639 1302.44 498.249 1303.2C499.877 1303.98 502.008 1304.36 504.641 1304.36C508.163 1304.36 511.071 1303.51 513.362 1301.81C515.654 1300.1 516.8 1297.43 516.8 1293.8V1284.93H516.232C515.739 1285.73 515.038 1286.71 514.129 1287.89C513.239 1289.04 511.951 1290.07 510.266 1290.98C508.599 1291.87 506.345 1292.32 503.504 1292.32C499.982 1292.32 496.819 1291.48 494.016 1289.82C491.232 1288.15 489.025 1285.73 487.396 1282.55C485.786 1279.36 484.982 1275.5 484.982 1270.95C484.982 1266.48 485.768 1262.59 487.339 1259.28C488.911 1255.95 491.099 1253.37 493.902 1251.55C496.705 1249.71 499.944 1248.8 503.618 1248.8C506.459 1248.8 508.713 1249.27 510.379 1250.22C512.065 1251.14 513.353 1252.2 514.243 1253.4C515.152 1254.57 515.853 1255.54 516.345 1256.3H517.027V1249.36H523.504V1294.25C523.504 1298 522.652 1301.05 520.947 1303.4C519.262 1305.77 516.989 1307.5 514.129 1308.6C511.288 1309.71 508.125 1310.27 504.641 1310.27ZM504.413 1286.3C507.103 1286.3 509.375 1285.68 511.232 1284.45C513.088 1283.22 514.499 1281.45 515.464 1279.14C516.43 1276.83 516.913 1274.06 516.913 1270.84C516.913 1267.7 516.44 1264.92 515.493 1262.52C514.546 1260.11 513.144 1258.23 511.288 1256.86C509.432 1255.5 507.141 1254.82 504.413 1254.82C501.572 1254.82 499.205 1255.54 497.311 1256.98C495.436 1258.42 494.025 1260.35 493.078 1262.77C492.15 1265.2 491.686 1267.89 491.686 1270.84C491.686 1273.87 492.16 1276.55 493.107 1278.88C494.072 1281.19 495.493 1283.01 497.368 1284.34C499.262 1285.64 501.61 1286.3 504.413 1286.3ZM558.277 1293V1249.36H564.982V1293H558.277ZM561.686 1242.09C560.379 1242.09 559.252 1241.65 558.305 1240.76C557.377 1239.87 556.913 1238.8 556.913 1237.55C556.913 1236.3 557.377 1235.23 558.305 1234.34C559.252 1233.45 560.379 1233 561.686 1233C562.993 1233 564.11 1233.45 565.038 1234.34C565.985 1235.23 566.459 1236.3 566.459 1237.55C566.459 1238.8 565.985 1239.87 565.038 1240.76C564.11 1241.65 562.993 1242.09 561.686 1242.09ZM583.966 1266.75V1293H577.261V1249.36H583.739V1256.18H584.307C585.33 1253.97 586.883 1252.19 588.966 1250.84C591.049 1249.48 593.739 1248.8 597.034 1248.8C599.989 1248.8 602.574 1249.4 604.79 1250.61C607.006 1251.81 608.729 1253.62 609.96 1256.07C611.191 1258.49 611.807 1261.56 611.807 1265.27V1293H605.102V1265.73C605.102 1262.3 604.212 1259.63 602.432 1257.72C600.652 1255.78 598.208 1254.82 595.102 1254.82C592.962 1254.82 591.049 1255.28 589.364 1256.21C587.697 1257.14 586.381 1258.49 585.415 1260.27C584.449 1262.05 583.966 1264.21 583.966 1266.75ZM640.536 1293.91C636.899 1293.91 633.689 1292.99 630.905 1291.15C628.121 1289.3 625.943 1286.68 624.371 1283.31C622.799 1279.92 622.013 1275.92 622.013 1271.3C622.013 1266.71 622.799 1262.73 624.371 1259.36C625.943 1255.99 628.13 1253.39 630.933 1251.55C633.736 1249.71 636.975 1248.8 640.649 1248.8C643.49 1248.8 645.734 1249.27 647.382 1250.22C649.049 1251.14 650.318 1252.2 651.189 1253.4C652.079 1254.57 652.77 1255.54 653.263 1256.3H653.831V1234.82H660.536V1293H654.058V1286.3H653.263C652.77 1287.09 652.07 1288.09 651.161 1289.31C650.251 1290.5 648.954 1291.57 647.268 1292.52C645.583 1293.45 643.339 1293.91 640.536 1293.91ZM641.445 1287.89C644.134 1287.89 646.407 1287.19 648.263 1285.78C650.119 1284.36 651.53 1282.4 652.496 1279.9C653.462 1277.38 653.945 1274.48 653.945 1271.18C653.945 1267.92 653.471 1265.07 652.524 1262.63C651.577 1260.17 650.176 1258.26 648.32 1256.89C646.464 1255.51 644.172 1254.82 641.445 1254.82C638.604 1254.82 636.236 1255.55 634.342 1257.01C632.467 1258.45 631.056 1260.41 630.109 1262.89C629.181 1265.35 628.717 1268.11 628.717 1271.18C628.717 1274.29 629.191 1277.11 630.138 1279.65C631.104 1282.17 632.524 1284.17 634.399 1285.67C636.293 1287.15 638.642 1287.89 641.445 1287.89ZM701.246 1275.16V1249.36H707.95V1293H701.246V1285.61H700.791C699.768 1287.83 698.178 1289.71 696.018 1291.27C693.859 1292.8 691.132 1293.57 687.837 1293.57C685.109 1293.57 682.685 1292.97 680.564 1291.78C678.443 1290.57 676.776 1288.75 675.564 1286.32C674.352 1283.88 673.746 1280.8 673.746 1277.09V1249.36H680.45V1276.64C680.45 1279.82 681.34 1282.36 683.121 1284.25C684.92 1286.14 687.212 1287.09 689.996 1287.09C691.662 1287.09 693.357 1286.66 695.081 1285.81C696.823 1284.96 698.282 1283.65 699.456 1281.89C700.649 1280.13 701.246 1277.89 701.246 1275.16ZM751.139 1259.14L745.116 1260.84C744.738 1259.84 744.179 1258.86 743.44 1257.91C742.721 1256.95 741.736 1256.15 740.486 1255.53C739.236 1254.9 737.635 1254.59 735.685 1254.59C733.014 1254.59 730.789 1255.21 729.009 1256.44C727.247 1257.65 726.366 1259.19 726.366 1261.07C726.366 1262.73 726.973 1264.05 728.185 1265.02C729.397 1265.98 731.291 1266.79 733.866 1267.43L740.344 1269.02C744.245 1269.97 747.152 1271.42 749.065 1273.37C750.978 1275.3 751.935 1277.79 751.935 1280.84C751.935 1283.34 751.215 1285.58 749.776 1287.55C748.355 1289.52 746.366 1291.07 743.81 1292.2C741.253 1293.34 738.279 1293.91 734.889 1293.91C730.438 1293.91 726.755 1292.94 723.838 1291.01C720.921 1289.08 719.075 1286.26 718.298 1282.55L724.662 1280.95C725.268 1283.3 726.414 1285.06 728.099 1286.24C729.804 1287.41 732.029 1288 734.776 1288C737.901 1288 740.382 1287.34 742.219 1286.01C744.075 1284.67 745.003 1283.06 745.003 1281.18C745.003 1279.67 744.473 1278.4 743.412 1277.38C742.351 1276.33 740.723 1275.56 738.526 1275.05L731.253 1273.34C727.257 1272.39 724.321 1270.93 722.446 1268.94C720.59 1266.93 719.662 1264.42 719.662 1261.41C719.662 1258.95 720.353 1256.77 721.736 1254.88C723.137 1252.98 725.041 1251.49 727.446 1250.41C729.87 1249.34 732.616 1248.8 735.685 1248.8C740.003 1248.8 743.393 1249.74 745.855 1251.64C748.336 1253.53 750.098 1256.03 751.139 1259.14ZM781.004 1249.36V1255.05H758.391V1249.36H781.004ZM764.982 1238.91H771.686V1280.5C771.686 1282.39 771.961 1283.81 772.51 1284.76C773.078 1285.69 773.798 1286.31 774.669 1286.64C775.559 1286.94 776.497 1287.09 777.482 1287.09C778.22 1287.09 778.826 1287.05 779.3 1286.98C779.773 1286.88 780.152 1286.81 780.436 1286.75L781.8 1292.77C781.345 1292.94 780.711 1293.11 779.896 1293.28C779.082 1293.47 778.05 1293.57 776.8 1293.57C774.906 1293.57 773.05 1293.16 771.232 1292.35C769.432 1291.53 767.936 1290.29 766.743 1288.62C765.569 1286.96 764.982 1284.86 764.982 1282.32V1238.91ZM791.089 1293V1249.36H797.567V1255.95H798.021C798.817 1253.8 800.256 1252.04 802.339 1250.7C804.423 1249.35 806.771 1248.68 809.385 1248.68C809.877 1248.68 810.493 1248.69 811.232 1248.71C811.97 1248.73 812.529 1248.76 812.908 1248.8V1255.61C812.68 1255.56 812.16 1255.47 811.345 1255.36C810.55 1255.23 809.707 1255.16 808.817 1255.16C806.696 1255.16 804.802 1255.6 803.135 1256.49C801.487 1257.37 800.18 1258.58 799.214 1260.13C798.268 1261.66 797.794 1263.42 797.794 1265.39V1293H791.089ZM820.855 1293V1249.36H827.56V1293H820.855ZM824.264 1242.09C822.957 1242.09 821.83 1241.65 820.884 1240.76C819.955 1239.87 819.491 1238.8 819.491 1237.55C819.491 1236.3 819.955 1235.23 820.884 1234.34C821.83 1233.45 822.957 1233 824.264 1233C825.571 1233 826.688 1233.45 827.616 1234.34C828.563 1235.23 829.037 1236.3 829.037 1237.55C829.037 1238.8 828.563 1239.87 827.616 1240.76C826.688 1241.65 825.571 1242.09 824.264 1242.09ZM852.68 1294.02C849.915 1294.02 847.406 1293.5 845.152 1292.46C842.898 1291.4 841.108 1289.88 839.783 1287.89C838.457 1285.88 837.794 1283.45 837.794 1280.61C837.794 1278.11 838.286 1276.09 839.271 1274.53C840.256 1272.96 841.572 1271.73 843.22 1270.84C844.868 1269.95 846.686 1269.29 848.675 1268.85C850.682 1268.4 852.699 1268.04 854.726 1267.77C857.377 1267.43 859.527 1267.18 861.175 1267.01C862.841 1266.82 864.054 1266.5 864.811 1266.07C865.588 1265.63 865.976 1264.87 865.976 1263.8V1263.57C865.976 1260.77 865.209 1258.59 863.675 1257.03C862.16 1255.48 859.858 1254.7 856.771 1254.7C853.571 1254.7 851.061 1255.41 849.243 1256.81C847.425 1258.21 846.146 1259.7 845.408 1261.3L839.044 1259.02C840.18 1256.37 841.696 1254.31 843.589 1252.83C845.502 1251.33 847.586 1250.29 849.839 1249.7C852.112 1249.1 854.347 1248.8 856.544 1248.8C857.946 1248.8 859.555 1248.97 861.374 1249.31C863.211 1249.63 864.982 1250.3 866.686 1251.32C868.41 1252.35 869.839 1253.89 870.976 1255.95C872.112 1258.02 872.68 1260.78 872.68 1264.25V1293H865.976V1287.09H865.635C865.18 1288.04 864.423 1289.05 863.362 1290.13C862.302 1291.21 860.891 1292.13 859.129 1292.89C857.368 1293.64 855.218 1294.02 852.68 1294.02ZM853.703 1288C856.355 1288 858.589 1287.48 860.408 1286.44C862.245 1285.4 863.627 1284.05 864.555 1282.4C865.502 1280.76 865.976 1279.02 865.976 1277.2V1271.07C865.692 1271.41 865.067 1271.72 864.101 1272.01C863.154 1272.27 862.055 1272.51 860.805 1272.72C859.574 1272.91 858.372 1273.08 857.197 1273.23C856.042 1273.36 855.105 1273.47 854.385 1273.57C852.643 1273.8 851.014 1274.16 849.499 1274.68C848.002 1275.17 846.79 1275.92 845.862 1276.92C844.953 1277.91 844.499 1279.25 844.499 1280.95C844.499 1283.28 845.36 1285.05 847.084 1286.24C848.826 1287.41 851.033 1288 853.703 1288ZM891.622 1234.82V1293H884.918V1234.82H891.622Z" fill="black"/>
<path d="M70.9576 1383.55C70.6337 1380.81 69.3203 1378.69 67.0172 1377.18C64.7142 1375.66 61.8894 1374.91 58.5428 1374.91C56.0958 1374.91 53.9547 1375.3 52.1195 1376.1C50.3023 1376.89 48.8809 1377.98 47.8553 1379.36C46.8477 1380.75 46.3439 1382.32 46.3439 1384.09C46.3439 1385.56 46.6948 1386.83 47.3965 1387.89C48.1162 1388.93 49.0338 1389.81 50.1493 1390.51C51.2649 1391.19 52.4344 1391.76 53.6578 1392.21C54.8813 1392.64 56.0059 1392.99 57.0314 1393.26L62.6451 1394.77C64.0845 1395.15 65.6858 1395.67 67.449 1396.34C69.2303 1397 70.9306 1397.91 72.5499 1399.06C74.1872 1400.2 75.5366 1401.65 76.5982 1403.44C77.6597 1405.22 78.1905 1407.4 78.1905 1409.99C78.1905 1412.98 77.4079 1415.68 75.8425 1418.09C74.2952 1420.5 72.0281 1422.42 69.0414 1423.84C66.0726 1425.26 62.4651 1425.97 58.2189 1425.97C54.2606 1425.97 50.833 1425.33 47.9363 1424.06C45.0575 1422.78 42.7904 1421 41.1351 1418.71C39.4978 1416.43 38.5712 1413.77 38.3553 1410.75H45.2644C45.4443 1412.84 46.146 1414.56 47.3695 1415.93C48.611 1417.28 50.1763 1418.29 52.0655 1418.95C53.9727 1419.6 56.0239 1419.93 58.2189 1419.93C60.7739 1419.93 63.0679 1419.51 65.101 1418.68C67.1342 1417.84 68.7445 1416.67 69.932 1415.18C71.1195 1413.66 71.7132 1411.9 71.7132 1409.89C71.7132 1408.05 71.2005 1406.56 70.1749 1405.41C69.1493 1404.25 67.7999 1403.32 66.1266 1402.6C64.4533 1401.88 62.6451 1401.25 60.7019 1400.71L53.9007 1398.77C49.5826 1397.53 46.164 1395.75 43.6451 1393.45C41.1261 1391.15 39.8667 1388.13 39.8667 1384.41C39.8667 1381.31 40.7033 1378.62 42.3766 1376.31C44.0679 1373.99 46.3349 1372.19 49.1777 1370.91C52.0385 1369.62 55.2322 1368.97 58.7587 1368.97C62.3212 1368.97 65.4879 1369.61 68.2587 1370.89C71.0295 1372.15 73.2246 1373.87 74.8439 1376.07C76.4812 1378.26 77.3449 1380.76 77.4348 1383.55H70.9576ZM125.468 1369.73H132.161V1406.32C132.161 1410.1 131.27 1413.48 129.489 1416.44C127.726 1419.4 125.234 1421.73 122.013 1423.43C118.793 1425.13 115.014 1425.97 110.678 1425.97C106.342 1425.97 102.564 1425.13 99.3429 1423.43C96.1222 1421.73 93.6213 1419.4 91.84 1416.44C90.0768 1413.48 89.1951 1410.1 89.1951 1406.32V1369.73H95.8883V1405.78C95.8883 1408.48 96.4821 1410.88 97.6696 1412.99C98.8571 1415.08 100.548 1416.72 102.743 1417.93C104.956 1419.12 107.601 1419.71 110.678 1419.71C113.755 1419.71 116.4 1419.12 118.613 1417.93C120.826 1416.72 122.517 1415.08 123.687 1412.99C124.874 1410.88 125.468 1408.48 125.468 1405.78V1369.73ZM145.527 1425V1369.73H164.203C168.521 1369.73 172.066 1370.46 174.837 1371.94C177.608 1373.4 179.659 1375.4 180.99 1377.96C182.322 1380.51 182.987 1383.42 182.987 1386.68C182.987 1389.93 182.322 1392.82 180.99 1395.34C179.659 1397.86 177.617 1399.84 174.864 1401.28C172.111 1402.7 168.593 1403.41 164.311 1403.41H149.198V1397.36H164.095C167.046 1397.36 169.421 1396.93 171.22 1396.07C173.038 1395.2 174.351 1393.98 175.161 1392.4C175.988 1390.8 176.402 1388.89 176.402 1386.68C176.402 1384.46 175.988 1382.53 175.161 1380.87C174.333 1379.22 173.011 1377.94 171.193 1377.04C169.376 1376.12 166.974 1375.66 163.987 1375.66H152.22V1425H145.527ZM171.544 1400.17L185.146 1425H177.374L163.987 1400.17H171.544ZM195.146 1369.73L211.555 1416.26H212.203L228.612 1369.73H235.629L215.333 1425H208.424L188.129 1369.73H195.146ZM244.238 1425V1369.73H277.596V1375.66H250.931V1394.34H275.869V1400.28H250.931V1419.06H278.028V1425H244.238ZM284.91 1369.73H292.575L307.904 1395.53H308.552L323.882 1369.73H331.546L311.575 1402.22V1425H304.882V1402.22L284.91 1369.73ZM346.896 1369.73V1425H340.203V1369.73H346.896ZM404.146 1369.73V1425H397.669L367.549 1381.6H367.009V1425H360.316V1369.73H366.794L397.021 1413.23H397.561V1369.73H404.146ZM455.323 1387C454.729 1385.18 453.947 1383.55 452.975 1382.12C452.021 1380.66 450.879 1379.42 449.547 1378.39C448.234 1377.37 446.741 1376.58 445.067 1376.04C443.394 1375.5 441.559 1375.23 439.562 1375.23C436.287 1375.23 433.309 1376.08 430.628 1377.77C427.948 1379.46 425.815 1381.95 424.232 1385.25C422.649 1388.54 421.857 1392.58 421.857 1397.36C421.857 1402.15 422.658 1406.19 424.259 1409.48C425.86 1412.77 428.028 1415.27 430.763 1416.96C433.498 1418.65 436.575 1419.49 439.993 1419.49C443.16 1419.49 445.949 1418.82 448.36 1417.47C450.789 1416.1 452.678 1414.18 454.028 1411.69C455.395 1409.19 456.079 1406.25 456.079 1402.87L458.13 1403.3H441.505V1397.36H462.556V1403.3C462.556 1407.85 461.584 1411.81 459.641 1415.18C457.716 1418.54 455.053 1421.15 451.653 1423C448.27 1424.84 444.384 1425.76 439.993 1425.76C435.099 1425.76 430.799 1424.6 427.093 1422.3C423.404 1420 420.526 1416.72 418.456 1412.48C416.405 1408.23 415.38 1403.19 415.38 1397.36C415.38 1392.99 415.965 1389.06 417.134 1385.57C418.322 1382.06 419.995 1379.07 422.154 1376.61C424.313 1374.14 426.868 1372.26 429.819 1370.94C432.769 1369.63 436.017 1368.97 439.562 1368.97C442.476 1368.97 445.193 1369.41 447.712 1370.29C450.249 1371.16 452.507 1372.39 454.486 1373.99C456.483 1375.57 458.148 1377.47 459.479 1379.69C460.811 1381.88 461.728 1384.32 462.232 1387H455.323ZM510.184 1425.76C506.55 1425.76 503.419 1425.09 500.792 1423.76C498.165 1422.43 496.141 1420.6 494.72 1418.28C493.298 1415.96 492.588 1413.3 492.588 1410.32C492.588 1408.02 493.073 1405.97 494.045 1404.19C495.035 1402.39 496.393 1400.73 498.12 1399.2C499.865 1397.65 501.872 1396.1 504.139 1394.56L512.127 1388.62C513.693 1387.59 514.943 1386.5 515.879 1385.33C516.832 1384.16 517.309 1382.63 517.309 1380.74C517.309 1379.34 516.688 1377.98 515.447 1376.66C514.223 1375.35 512.613 1374.69 510.616 1374.69C509.213 1374.69 507.971 1375.05 506.892 1375.77C505.83 1376.47 504.993 1377.37 504.382 1378.47C503.788 1379.55 503.491 1380.67 503.491 1381.82C503.491 1383.11 503.842 1384.43 504.544 1385.76C505.263 1387.07 506.172 1388.42 507.269 1389.81C508.385 1391.17 509.536 1392.58 510.724 1394.02L536.093 1425H528.428L507.485 1399.74C505.542 1397.4 503.779 1395.28 502.195 1393.37C500.612 1391.46 499.353 1389.58 498.417 1387.73C497.481 1385.88 497.014 1383.87 497.014 1381.71C497.014 1379.23 497.562 1377.05 498.66 1375.18C499.776 1373.29 501.332 1371.82 503.329 1370.78C505.344 1369.72 507.701 1369.19 510.4 1369.19C513.171 1369.19 515.555 1369.73 517.552 1370.81C519.549 1371.87 521.088 1373.28 522.167 1375.04C523.247 1376.79 523.786 1378.69 523.786 1380.74C523.786 1383.38 523.13 1385.68 521.816 1387.62C520.503 1389.56 518.713 1391.37 516.445 1393.05L505.434 1401.25C502.951 1403.09 501.269 1404.87 500.387 1406.59C499.506 1408.32 499.065 1409.56 499.065 1410.32C499.065 1412.05 499.515 1413.66 500.414 1415.15C501.314 1416.64 502.582 1417.85 504.22 1418.77C505.857 1419.68 507.773 1420.14 509.968 1420.14C512.055 1420.14 514.088 1419.7 516.068 1418.82C518.047 1417.92 519.837 1416.62 521.438 1414.93C523.058 1413.24 524.335 1411.21 525.271 1408.83C526.224 1406.46 526.701 1403.79 526.701 1400.82H532.855C532.855 1404.49 532.432 1407.48 531.586 1409.81C530.74 1412.13 529.787 1413.94 528.725 1415.26C527.664 1416.57 526.809 1417.55 526.161 1418.2C525.945 1418.47 525.748 1418.74 525.568 1419.01C525.388 1419.28 525.19 1419.55 524.974 1419.82C523.193 1421.82 520.944 1423.31 518.227 1424.3C515.51 1425.27 512.829 1425.76 510.184 1425.76ZM565.383 1369.73H573.371L592.155 1415.61H592.803L611.587 1369.73H619.576V1425H613.314V1383.01H612.775L595.502 1425H589.456L572.184 1383.01H571.644V1425H565.383V1369.73ZM635.263 1425H628.246L648.541 1369.73H655.45L675.746 1425H668.729L652.212 1378.47H651.78L635.263 1425ZM637.854 1403.41H666.138V1409.35H637.854V1403.41ZM684.355 1425V1369.73H703.031C707.368 1369.73 710.912 1370.51 713.665 1372.08C716.436 1373.62 718.487 1375.72 719.818 1378.36C721.15 1381.01 721.816 1383.96 721.816 1387.22C721.816 1390.47 721.15 1393.43 719.818 1396.1C718.505 1398.76 716.472 1400.88 713.719 1402.46C710.966 1404.03 707.44 1404.81 703.139 1404.81H689.753V1398.88H702.923C705.892 1398.88 708.276 1398.36 710.075 1397.34C711.875 1396.31 713.179 1394.93 713.989 1393.18C714.816 1391.42 715.23 1389.43 715.23 1387.22C715.23 1385 714.816 1383.02 713.989 1381.28C713.179 1379.53 711.866 1378.17 710.048 1377.18C708.231 1376.17 705.82 1375.66 702.816 1375.66H691.048V1425H684.355ZM732.597 1425V1369.73H751.274C755.61 1369.73 759.154 1370.51 761.907 1372.08C764.678 1373.62 766.729 1375.72 768.061 1378.36C769.392 1381.01 770.058 1383.96 770.058 1387.22C770.058 1390.47 769.392 1393.43 768.061 1396.1C766.747 1398.76 764.714 1400.88 761.961 1402.46C759.208 1404.03 755.682 1404.81 751.382 1404.81H737.995V1398.88H751.166C754.134 1398.88 756.518 1398.36 758.318 1397.34C760.117 1396.31 761.421 1394.93 762.231 1393.18C763.059 1391.42 763.472 1389.43 763.472 1387.22C763.472 1385 763.059 1383.02 762.231 1381.28C761.421 1379.53 760.108 1378.17 758.291 1377.18C756.473 1376.17 754.062 1375.66 751.058 1375.66H739.291V1425H732.597ZM787.533 1369.73V1425H780.84V1369.73H787.533ZM844.782 1369.73V1425H838.305L808.186 1381.6H807.646V1425H800.953V1369.73H807.43L837.657 1413.23H838.197V1369.73H844.782ZM895.96 1387C895.366 1385.18 894.583 1383.55 893.612 1382.12C892.658 1380.66 891.516 1379.42 890.184 1378.39C888.871 1377.37 887.377 1376.58 885.704 1376.04C884.031 1375.5 882.195 1375.23 880.198 1375.23C876.924 1375.23 873.946 1376.08 871.265 1377.77C868.584 1379.46 866.452 1381.95 864.869 1385.25C863.285 1388.54 862.494 1392.58 862.494 1397.36C862.494 1402.15 863.294 1406.19 864.896 1409.48C866.497 1412.77 868.665 1415.27 871.4 1416.96C874.135 1418.65 877.212 1419.49 880.63 1419.49C883.797 1419.49 886.586 1418.82 888.997 1417.47C891.426 1416.1 893.315 1414.18 894.664 1411.69C896.032 1409.19 896.715 1406.25 896.715 1402.87L898.767 1403.3H882.142V1397.36H903.193V1403.3C903.193 1407.85 902.221 1411.81 900.278 1415.18C898.353 1418.54 895.69 1421.15 892.289 1423C888.907 1424.84 885.02 1425.76 880.63 1425.76C875.736 1425.76 871.436 1424.6 867.73 1422.3C864.041 1420 861.162 1416.72 859.093 1412.48C857.042 1408.23 856.017 1403.19 856.017 1397.36C856.017 1392.99 856.601 1389.06 857.771 1385.57C858.958 1382.06 860.632 1379.07 862.791 1376.61C864.95 1374.14 867.505 1372.26 870.455 1370.94C873.406 1369.63 876.654 1368.97 880.198 1368.97C883.113 1368.97 885.83 1369.41 888.349 1370.29C890.886 1371.16 893.144 1372.39 895.123 1373.99C897.12 1375.57 898.785 1377.47 900.116 1379.69C901.447 1381.88 902.365 1384.32 902.869 1387H895.96Z" fill="black"/>
<rect x="38" y="1327" width="870" height="7" fill="black"/>
<rect x="213" y="1263" width="15" height="15" rx="3" fill="black"/>
<rect x="534" y="1263" width="15" height="15" rx="3" fill="black"/>
</g>
<defs>
<clipPath id="clip0_0_1">
<rect width="946" height="1469" fill="white"/>
</clipPath>
</defs>
</svg>
