<svg width="955" height="817" viewBox="0 0 955 817" fill="none" xmlns="http://www.w3.org/2000/svg">
<rect x="69" y="542" width="825" height="40" rx="20" fill="black"/>
<rect x="69" y="542" width="825" height="40" rx="20" fill="black"/>
<rect x="382" width="198" height="50" rx="25" fill="black"/>
<rect x="382" width="198" height="50" rx="25" fill="black"/>
<rect x="540" y="328" width="281" height="40" rx="20" transform="rotate(-90 540 328)" fill="black"/>
<rect x="540" y="328" width="281" height="40" rx="20" transform="rotate(-90 540 328)" fill="black"/>
<rect x="687" y="296" width="217" height="35" rx="17.5" transform="rotate(-90 687 296)" fill="black"/>
<rect x="687" y="296" width="217" height="35" rx="17.5" transform="rotate(-90 687 296)" fill="black"/>
<rect x="246" y="296" width="217" height="35" rx="17.5" transform="rotate(-90 246 296)" fill="black"/>
<rect x="246" y="296" width="217" height="35" rx="17.5" transform="rotate(-90 246 296)" fill="black"/>
<rect x="382" y="328" width="303" height="40" rx="20" transform="rotate(-90 382 328)" fill="black"/>
<rect x="382" y="328" width="303" height="40" rx="20" transform="rotate(-90 382 328)" fill="black"/>
<rect y="705" width="96" height="40" rx="20" transform="rotate(-90 0 705)" fill="black"/>
<rect y="705" width="96" height="40" rx="20" transform="rotate(-90 0 705)" fill="black"/>
<rect x="915" y="705" width="96" height="40" rx="20" transform="rotate(-90 915 705)" fill="black"/>
<rect x="915" y="705" width="96" height="40" rx="20" transform="rotate(-90 915 705)" fill="black"/>
<rect x="874" y="582" width="200" height="40" rx="20" transform="rotate(-90 874 582)" fill="black"/>
<rect x="874" y="582" width="200" height="40" rx="20" transform="rotate(-90 874 582)" fill="black"/>
<rect x="49" y="562" width="206" height="40" rx="20" transform="rotate(-90 49 562)" fill="black"/>
<rect x="49" y="562" width="206" height="40" rx="20" transform="rotate(-90 49 562)" fill="black"/>
<path d="M892.409 441.321C903.408 442.213 913.17 434.153 913.662 423.129C915.71 377.276 908.436 331.413 892.127 287.742C873.47 237.784 843.388 191.767 803.759 152.56C764.129 113.353 715.801 81.7982 661.791 59.8636C607.78 37.9291 549.244 26.0853 489.836 25.0711C430.427 24.057 371.42 33.8942 316.494 53.9692C261.569 74.0442 211.904 103.926 170.598 141.751C129.291 179.576 97.2293 224.533 76.4118 273.817C58.242 316.833 48.9785 362.34 49 408.158C49.0052 419.276 58.5295 427.784 69.6345 427.264V427.264C80.9429 426.735 89.5674 417.058 89.6507 405.737C89.9503 365.038 98.334 324.647 114.478 286.427C133.34 241.774 162.389 201.042 199.814 166.771C237.238 132.5 282.236 105.426 332 87.2378C381.764 69.0493 435.226 60.1365 489.052 61.0553C542.878 61.9741 595.913 72.7049 644.848 92.5783C693.784 112.452 737.57 141.041 773.476 176.564C809.381 212.086 836.636 253.78 853.54 299.043C867.989 337.733 874.61 378.322 873.163 418.945C872.757 430.324 881.06 440.401 892.409 441.321V441.321Z" fill="black"/>
<path d="M955 623.5C955 612.797 952.892 602.199 948.796 592.311C944.7 582.423 938.697 573.439 931.129 565.871C923.561 558.303 914.577 552.3 904.689 548.204C894.801 544.108 884.203 542 873.5 542V582.518C878.882 582.518 884.211 583.578 889.183 585.638C894.155 587.697 898.673 590.716 902.478 594.522C906.284 598.327 909.303 602.845 911.362 607.817C913.422 612.789 914.482 618.118 914.482 623.5H955Z" fill="black"/>
<path d="M81.5 542C70.7973 542 60.1993 544.108 50.3113 548.204C40.4233 552.3 31.4388 558.303 23.8708 565.871C16.3028 573.439 10.2996 582.423 6.20382 592.311C2.10806 602.199 -4.67831e-07 612.797 0 623.5L39.1373 623.5C39.1373 617.937 40.2331 612.428 42.362 607.289C44.4909 602.149 47.6113 597.479 51.5451 593.545C55.4788 589.611 60.1488 586.491 65.2885 584.362C70.4282 582.233 75.9369 581.137 81.5 581.137V542Z" fill="black"/>
<path d="M123.04 693.125C115.12 702.239 117.149 716.282 127.564 722.392C231.212 783.192 353.992 815.996 479.864 816.241C605.667 816.486 728.275 784.194 831.689 723.86C842.166 717.747 844.218 703.636 836.259 694.482V694.482C829.834 687.092 818.993 685.535 810.571 690.533C713.673 748.041 598.262 778.851 479.802 778.621C361.316 778.39 245.778 747.117 148.677 689.207C140.281 684.2 129.453 685.746 123.04 693.125V693.125Z" fill="black"/>
<path d="M218.727 749.478C225.504 740.231 223.533 727.183 213.895 720.976C185.434 702.644 154.527 688.678 122.514 679.733C92.8123 671.433 62.6576 667.595 33.1896 668.312C19.432 668.647 10.4177 682.129 14.111 695.386C17.0816 706.048 27.3843 712.837 38.4457 712.444C63.9203 711.54 90.0475 714.725 115.769 721.913C141.457 729.091 166.293 740.136 189.287 754.564C198.997 760.657 211.951 758.725 218.727 749.478Z" fill="black"/>
<path d="M946.233 690.954C946.793 679.616 938.139 669.863 926.786 669.817C892.879 669.681 859.33 674.573 827.63 684.323C798.405 693.311 771.241 706.277 747.129 722.692C735.686 730.482 735.452 746.793 745.813 755.973V755.973C754.168 763.376 766.613 763.469 775.771 757.085C796.454 742.664 819.905 731.318 845.203 723.538C870.472 715.766 897.146 711.686 924.146 711.423C935.728 711.31 945.662 702.523 946.233 690.954V690.954Z" fill="black"/>
</svg>
