<svg width="556" height="400" viewBox="0 0 556 400" fill="none" xmlns="http://www.w3.org/2000/svg">
<path d="M122 312.014C122 308.935 124.861 306.654 127.863 307.34L157 314L205.5 319.5L246 322.5H284H328L363 319.5L406.567 314.054C406.855 314.018 407.14 313.957 407.417 313.872L426.938 307.865C429.95 306.938 433 309.191 433 312.343V312.343C433 314.492 431.537 316.366 429.452 316.887L407 322.5L364.5 329L328 332.5H284H246L203 329L157 322.5L125.919 316.728C123.648 316.306 122 314.324 122 312.014V312.014Z" fill="black"/>
<path d="M12.9147 363.232C14.3886 361.389 17.0087 360.943 19.0095 362.193L30.9094 369.631C31.3012 369.876 31.7252 370.065 32.1691 370.194L50.5 375.5L74.5 380L111.5 383.189L151.206 386.755L226.698 389.811H293.412L371 388L431.5 383.189L468.5 378L505 373L525.446 368.619C525.814 368.54 526.172 368.42 526.513 368.261L532.945 365.259C533.314 365.087 533.66 364.871 533.976 364.614L537.384 361.856C540.039 359.707 544 361.596 544 365.012V365.012C544 365.973 543.66 366.902 543.039 367.636L539.304 372.05C538.776 372.674 538.103 373.159 537.344 373.462L526.376 377.849C526.126 377.95 525.868 378.029 525.604 378.088L517 380L505 383.189L468.5 388L431.5 393.5L371 398L293.412 400H226.698L151.206 396.434L74.5 389.811L47.8984 385.071C47.6332 385.024 47.3723 384.955 47.1182 384.866L29.4156 378.646C29.1391 378.549 28.8716 378.428 28.6164 378.284L14.2609 370.186C11.7651 368.778 11.1246 365.469 12.9147 363.232V363.232Z" fill="black"/>
<rect x="339.95" y="1.52112" width="288.107" height="10" rx="5" transform="rotate(91.9465 339.95 1.52112)" fill="black"/>
<rect x="404.786" y="43.02" width="194.501" height="10" rx="5" transform="rotate(95.8541 404.786 43.02)" fill="black"/>
<rect x="158.945" y="41" width="194.501" height="10" rx="5" transform="rotate(83.9712 158.945 41)" fill="black"/>
<rect x="223.922" y="1.18283" width="287.515" height="10" rx="5" transform="rotate(88.527 223.922 1.18283)" fill="black"/>
<rect x="214" width="126" height="10" rx="5" fill="black"/>
<path d="M47 319C44.2386 319 42 316.761 42 314V247.5C42 244.739 44.2386 242.5 47 242.5V242.5C49.7614 242.5 52 244.739 52 247.5V314C52 316.761 49.7614 319 47 319V319Z" fill="black"/>
<rect x="502" y="319" width="79" height="10" rx="5" transform="rotate(-90 502 319)" fill="black"/>
<rect x="333.595" y="13.3131" width="77.8113" height="10" rx="5" transform="rotate(22.0015 333.595 13.3131)" fill="black"/>
<rect x="148.072" y="41.5369" width="76.4932" height="10" rx="5" transform="rotate(-21.0997 148.072 41.5369)" fill="black"/>
<path d="M512 247.5C512 211.317 501.588 175.745 481.768 144.217C461.948 112.689 433.39 86.2689 398.85 67.5076L392.613 76.7208C425.385 94.5218 452.481 119.589 471.286 149.503C490.092 179.418 502 213.169 502 247.5H512Z" fill="black"/>
<path d="M512 247.5C512 211.317 501.588 175.745 481.768 144.217C461.948 112.689 433.39 86.2689 398.85 67.5076L392.613 76.7208C425.385 94.5218 452.481 119.589 471.286 149.503C490.092 179.418 502 213.169 502 247.5H512Z" fill="black"/>
<path d="M512 247.5C512 211.317 501.588 175.745 481.768 144.217C461.948 112.689 433.39 86.2689 398.85 67.5076L392.613 76.7208C425.385 94.5218 452.481 119.589 471.286 149.503C490.092 179.418 502 213.169 502 247.5H512Z" fill="black"/>
<path d="M512 247.5C512 211.317 501.588 175.745 481.768 144.217C461.948 112.689 433.39 86.2689 398.85 67.5076L392.613 76.7208C425.385 94.5218 452.481 119.589 471.286 149.503C490.092 179.418 502 213.169 502 247.5H512Z" fill="black"/>
<path d="M152.815 68.7928C119.066 87.6098 91.1983 113.788 71.8184 144.878C52.4384 175.967 42.1798 210.953 42.0023 246.56H52C52.1684 212.775 63.933 179.629 82.3209 150.131C100.709 120.632 127.15 95.7941 159.171 77.9402L152.815 68.7928Z" fill="black"/>
<path d="M152.815 68.7928C119.066 87.6098 91.1983 113.788 71.8184 144.878C52.4384 175.967 42.1798 210.953 42.0023 246.56H52C52.1684 212.775 63.933 179.629 82.3209 150.131C100.709 120.632 127.15 95.7941 159.171 77.9402L152.815 68.7928Z" fill="black"/>
<path d="M152.815 68.7928C119.066 87.6098 91.1983 113.788 71.8184 144.878C52.4384 175.967 42.1798 210.953 42.0023 246.56H52C52.1684 212.775 63.933 179.629 82.3209 150.131C100.709 120.632 127.15 95.7941 159.171 77.9402L152.815 68.7928Z" fill="black"/>
<path d="M152.815 68.7928C119.066 87.6098 91.1983 113.788 71.8184 144.878C52.4384 175.967 42.1798 210.953 42.0023 246.56H52C52.1684 212.775 63.933 179.629 82.3209 150.131C100.709 120.632 127.15 95.7941 159.171 77.9402L152.815 68.7928Z" fill="black"/>
<path d="M51.3467 318C52.7529 315.781 52.0402 312.809 49.6142 311.803C42.5492 308.871 34.6332 308.201 27.0687 309.973C17.9229 312.114 10.04 317.648 5.15413 325.356C0.268257 333.064 -1.22036 342.316 1.01575 351.075C2.89213 358.425 7.26223 364.924 13.3751 369.589C15.3529 371.099 18.1313 370.402 19.4634 368.3V368.3C20.8696 366.081 20.1143 363.166 18.1266 361.448C14.2915 358.135 11.5467 353.774 10.3025 348.9C8.66862 342.5 9.75634 335.74 13.3264 330.108C16.8965 324.475 22.6565 320.432 29.3393 318.867C34.5564 317.646 40.0022 318.013 44.9381 319.859C47.2685 320.731 50.0146 320.101 51.3467 318V318Z" fill="black"/>
<path d="M532.729 371.839C534.001 373.548 536.322 374.142 538.138 373.029C541.309 371.084 544.183 368.641 546.646 365.784C549.919 361.988 552.393 357.55 553.905 352.764C555.416 347.977 555.93 342.95 555.414 338.017C554.897 333.083 553.361 328.354 550.907 324.143C548.453 319.932 545.137 316.335 541.179 313.59C537.221 310.845 532.71 309.014 527.946 308.218C523.181 307.423 518.272 307.681 513.541 308.976C510.228 309.882 507.056 311.283 504.126 313.125C502.019 314.449 501.703 317.297 503.213 319.275V319.275C504.795 321.347 507.766 321.655 510.05 320.398C511.819 319.423 513.692 318.661 515.631 318.131C519.088 317.185 522.675 316.996 526.157 317.577C529.638 318.159 532.934 319.497 535.826 321.502C538.718 323.508 541.141 326.137 542.934 329.214C544.727 332.29 545.85 335.746 546.227 339.351C546.605 342.956 546.229 346.629 545.125 350.126C544.02 353.624 542.213 356.867 539.821 359.64C538.439 361.242 536.297 363.096 534.105 364.676C531.832 366.316 531.056 369.591 532.729 371.839V371.839Z" fill="black"/>
</svg>
