<svg width="883" height="885" viewBox="0 0 883 885" fill="none" xmlns="http://www.w3.org/2000/svg">
<rect width="183" height="25" rx="12.5" fill="black"/>
<rect x="54" y="442" width="772" height="25" rx="12.5" fill="black"/>
<rect y="183" width="183" height="25" rx="12.5" transform="rotate(-90 0 183)" fill="black"/>
<rect x="126.388" y="404.874" width="183" height="25" rx="12.5" transform="rotate(-89.6163 126.388 404.874)" fill="black"/>
<rect x="421" y="773.996" width="211.112" height="25" rx="12.5" transform="rotate(-89.6163 421 773.996)" fill="black"/>
<rect x="421.986" y="434.833" width="63.8339" height="25" rx="12.5" transform="rotate(-89.6163 421.986 434.833)" fill="black"/>
<rect x="726" y="419.913" width="188.917" height="25" rx="12.5" transform="rotate(-89.6163 726 419.913)" fill="black"/>
<rect x="727" y="611.127" width="122.13" height="25" rx="12.5" transform="rotate(-89.6163 727 611.127)" fill="black"/>
<rect x="125" y="616.127" width="122.13" height="25" rx="12.5" transform="rotate(-89.6163 125 616.127)" fill="black"/>
<rect x="882.16" y="883.998" width="183" height="25" rx="12.5" transform="rotate(179.749 882.16 883.998)" fill="black"/>
<rect x="881.358" y="701" width="183" height="25" rx="12.5" transform="rotate(89.7489 881.358 701)" fill="black"/>
<rect x="0.358978" y="880.072" width="183" height="25" rx="12.5" transform="rotate(-90.1124 0.358978 880.072)" fill="black"/>
<rect x="183.72" y="884.358" width="183" height="25" rx="12.5" transform="rotate(179.888 183.72 884.358)" fill="black"/>
<rect x="699" width="183" height="25" rx="12.5" fill="black"/>
<rect x="882.228" y="0.0461731" width="183" height="25" rx="12.5" transform="rotate(90.0715 882.228 0.0461731)" fill="black"/>
<rect x="431.594" y="68" width="365.741" height="25" rx="12.5" transform="rotate(26.6473 431.594 68)" fill="black"/>
<rect x="121" y="230.216" width="365.741" height="25" rx="12.5" transform="rotate(-26.3292 121 230.216)" fill="black"/>
<rect x="414" y="377.216" width="365.741" height="25" rx="12.5" transform="rotate(-26.3292 414 377.216)" fill="black"/>
<rect x="416" y="767.07" width="373.257" height="25" rx="12.5" transform="rotate(-29.901 416 767.07)" fill="black"/>
<rect x="138.594" y="215" width="351.896" height="25" rx="12.5" transform="rotate(26.6473 138.594 215)" fill="black"/>
<rect x="138.353" y="589" width="358.848" height="25" rx="12.5" transform="rotate(29.613 138.353 589)" fill="black"/>
</svg>
