<svg width="606" height="939" viewBox="0 0 606 939" fill="none" xmlns="http://www.w3.org/2000/svg">
<rect x="180" y="266" width="246" height="20" rx="10" fill="black"/>
<rect x="145" y="59" width="54" height="20" rx="10" fill="black"/>
<rect x="412" y="59" width="54" height="20" rx="10" fill="black"/>
<rect x="406" y="236" width="54" height="20" rx="10" fill="black"/>
<rect x="145" y="236" width="54" height="20" rx="10" fill="black"/>
<rect x="180" y="302" width="246" height="20" rx="10" fill="black"/>
<rect x="426" y="302" width="71" height="20" rx="10" transform="rotate(90 426 302)" fill="black"/>
<rect x="492" y="82" width="145" height="20" rx="10" transform="rotate(90 492 82)" fill="black"/>
<rect x="409.558" y="389" width="534.929" height="20" rx="10" transform="rotate(68.1104 409.558 389)" fill="black"/>
<rect x="216.932" y="396.416" width="534.929" height="20" rx="10" transform="rotate(111.766 216.932 396.416)" fill="black"/>
<rect x="352.675" y="388" width="549.685" height="20" rx="10" transform="rotate(69.0258 352.675 388)" fill="black"/>
<rect x="273.812" y="397.447" width="549.685" height="20" rx="10" transform="rotate(111.194 273.812 397.447)" fill="black"/>
<rect x="288.044" y="390.271" width="519.492" height="20" rx="10" transform="rotate(90.7771 288.044 390.271)" fill="black"/>
<rect x="338.999" y="389" width="518.715" height="20" rx="10" transform="rotate(89.3793 338.999 389)" fill="black"/>
<rect x="426" y="236" width="48" height="20" rx="10" transform="rotate(90 426 236)" fill="black"/>
<rect x="200" y="236" width="48" height="20" rx="10" transform="rotate(90 200 236)" fill="black"/>
<rect x="138" y="84" width="145" height="20" rx="10" transform="rotate(90 138 84)" fill="black"/>
<rect x="199" y="302" width="71" height="20" rx="10" transform="rotate(90 199 302)" fill="black"/>
<rect x="206" y="383" width="195" height="20" rx="10" fill="black"/>
<path d="M373 154C373 192.66 341.66 224 303 224C264.34 224 233 192.66 233 154C233 115.34 264.34 84 303 84C341.66 84 373 115.34 373 154ZM252.163 154C252.163 182.076 274.924 204.837 303 204.837C331.076 204.837 353.837 182.076 353.837 154C353.837 125.924 331.076 103.163 303 103.163C274.924 103.163 252.163 125.924 252.163 154Z" fill="black"/>
<path d="M4.16512 876.917C1.94678 881.637 0.763821 886.792 0.691576 892.054C0.61933 897.317 1.65938 902.571 3.7455 907.482C5.83161 912.394 8.91806 916.855 12.8083 920.581C16.6985 924.307 21.3072 927.217 26.3409 929.126C31.3746 931.035 36.7229 931.9 42.0453 931.666C47.3676 931.433 52.5473 930.106 57.2545 927.771C61.9617 925.435 66.0932 922.142 69.3859 918.1C72.6786 914.059 75.0603 909.358 76.3793 904.298L58.1221 899.136C57.4496 901.716 56.2353 904.113 54.5564 906.173C52.8776 908.234 50.7711 909.913 48.371 911.104C45.971 912.295 43.33 912.971 40.6163 913.09C37.9026 913.209 35.1756 912.768 32.6091 911.795C30.0426 910.822 27.6927 909.338 25.7092 907.438C23.7257 905.538 22.152 903.264 21.0884 900.76C20.0247 898.255 19.4944 895.576 19.5313 892.893C19.5681 890.21 20.1713 887.582 21.3023 885.175L4.16512 876.917Z" fill="black"/>
<path d="M261.123 901.853C261.637 907.099 263.351 912.25 266.155 916.976C268.96 921.703 272.793 925.901 277.411 929.305C282.029 932.709 287.331 935.243 292.979 936.746C298.626 938.249 304.496 938.688 310.214 938.035C315.932 937.382 321.374 935.652 326.191 932.954C331.009 930.256 335.097 926.65 338.196 922.365C341.295 918.08 343.336 913.211 344.19 908.067C345.044 902.923 344.692 897.617 343.156 892.487L323.377 896.425C324.16 899.04 324.34 901.746 323.904 904.368C323.469 906.991 322.428 909.474 320.848 911.659C319.268 913.843 317.183 915.682 314.727 917.058C312.271 918.433 309.497 919.316 306.581 919.649C303.666 919.981 300.673 919.758 297.793 918.991C294.914 918.225 292.21 916.933 289.856 915.197C287.501 913.462 285.547 911.321 284.117 908.911C282.687 906.501 281.813 903.875 281.551 901.2L261.123 901.853Z" fill="black"/>
<path d="M527.399 895.921C529.016 900.882 531.711 905.45 535.311 909.335C538.911 913.219 543.338 916.335 548.31 918.484C553.282 920.633 558.689 921.768 564.188 921.817C569.687 921.865 575.157 920.826 580.249 918.766C585.341 916.706 589.944 913.67 593.765 909.851C597.586 906.032 600.541 901.514 602.441 896.584C604.342 891.655 605.147 886.422 604.805 881.219C604.462 876.017 602.98 870.958 600.453 866.366L583.206 875.121C584.495 877.463 585.25 880.042 585.425 882.694C585.599 885.347 585.189 888.015 584.22 890.528C583.251 893.042 581.744 895.345 579.796 897.293C577.848 899.24 575.501 900.788 572.904 901.838C570.308 902.889 567.519 903.419 564.716 903.394C561.912 903.369 559.155 902.79 556.62 901.695C554.085 900.599 551.828 899.01 549.992 897.03C548.156 895.049 546.782 892.72 545.958 890.191L527.399 895.921Z" fill="black"/>
<path d="M415.735 77C421.957 77 427.118 71.8926 425.695 65.8362C424.221 59.5645 421.507 53.416 417.599 47.5334C411.393 38.1913 402.296 29.7029 390.828 22.5528C379.36 15.4027 365.745 9.73089 350.761 5.86128C335.778 1.99166 319.718 -4.42e-07 303.5 0C287.282 4.42e-07 271.222 1.99166 256.239 5.86128C241.255 9.73089 227.64 15.4027 216.172 22.5528C204.704 29.7029 195.607 38.1913 189.401 47.5334C185.493 53.416 182.779 59.5645 181.305 65.8362C179.882 71.8926 185.043 77 191.265 77C197.486 77 202.396 71.8638 204.116 65.8849C205.393 61.4461 207.434 57.0951 210.216 52.9089C215.29 45.271 222.727 38.3311 232.103 32.4854C241.479 26.6397 252.61 22.0026 264.86 18.8389C277.111 15.6752 290.24 14.0469 303.5 14.0469C316.76 14.0469 329.889 15.6752 342.14 18.8389C354.39 22.0026 365.521 26.6397 374.897 32.4854C384.273 38.3311 391.71 45.271 396.784 52.9089C399.566 57.0951 401.607 61.4461 402.884 65.8849C404.604 71.8637 409.514 77 415.735 77Z" fill="black"/>
<path d="M218.586 402.225C213.465 402.262 208.386 401.266 203.64 399.292C198.893 397.318 194.572 394.405 190.924 390.721C187.275 387.036 184.37 382.651 182.375 377.816C180.379 372.981 179.332 367.791 179.294 362.542L198.819 362.399C198.839 365.02 199.361 367.611 200.358 370.025C201.354 372.439 202.805 374.629 204.627 376.469C206.448 378.309 208.606 379.763 210.976 380.749C213.346 381.734 215.882 382.232 218.439 382.213L218.586 402.225Z" fill="black"/>
<path d="M386.015 403.235C391.324 403.196 396.573 402.124 401.463 400.079C406.354 398.034 410.789 395.057 414.515 391.318C418.242 387.579 421.188 383.151 423.184 378.287C425.18 373.423 426.187 368.218 426.149 362.969L405.908 363.118C405.927 365.739 405.424 368.338 404.427 370.767C403.431 373.195 401.96 375.406 400.099 377.273C398.238 379.14 396.024 380.627 393.582 381.648C391.14 382.669 388.519 383.204 385.868 383.224L386.015 403.235Z" fill="black"/>
<path d="M492.54 99.4241C492.46 94.1155 491.348 88.8745 489.265 84.0003C487.183 79.1261 484.172 74.7142 480.404 71.0164C476.636 67.3186 472.186 64.4074 467.306 62.449C462.427 60.4906 457.214 59.5233 451.966 59.6024L452.271 79.8416C454.891 79.8021 457.494 80.2851 459.931 81.263C462.367 82.2409 464.589 83.6945 466.471 85.5409C468.352 87.3873 469.856 89.5903 470.895 92.0242C471.935 94.458 472.491 97.075 472.531 99.7257L492.54 99.4241Z" fill="black"/>
<path d="M452.049 254.747C457.357 254.639 462.592 253.498 467.455 251.39C472.318 249.282 476.714 246.248 480.392 242.46C484.069 238.673 486.957 234.207 488.889 229.317C490.822 224.427 491.762 219.21 491.655 213.962L471.417 214.374C471.471 216.995 471.002 219.6 470.037 222.042C469.072 224.483 467.63 226.713 465.793 228.604C463.957 230.495 461.762 232.01 459.334 233.063C456.905 234.116 454.291 234.685 451.641 234.739L452.049 254.747Z" fill="black"/>
<path d="M118.029 215.487C118.033 220.796 119.071 226.052 121.083 230.956C123.095 235.859 126.043 240.314 129.757 244.065C133.471 247.817 137.88 250.792 142.731 252.82C147.581 254.848 152.78 255.89 158.029 255.886L158.014 235.645C155.393 235.647 152.797 235.126 150.375 234.114C147.953 233.101 145.752 231.616 143.897 229.742C142.042 227.869 140.571 225.645 139.566 223.196C138.561 220.748 138.043 218.123 138.041 215.472L118.029 215.487Z" fill="black"/>
<path d="M158.428 59.1673C152.495 59.1918 146.64 60.5071 141.279 63.0198C135.918 65.5324 131.181 69.1809 127.406 73.7062C123.631 78.2316 120.909 83.5229 119.434 89.2046C117.959 94.8864 117.767 100.819 118.872 106.582L138.759 102.855C138.208 99.977 138.304 97.0146 139.04 94.1775C139.777 91.3404 141.136 88.6983 143.021 86.4387C144.906 84.1791 147.271 82.3573 149.948 81.1026C152.625 79.848 155.549 79.1912 158.511 79.179L158.428 59.1673Z" fill="black"/>
</svg>
