<svg width="508" height="639" viewBox="0 0 508 639" fill="none" xmlns="http://www.w3.org/2000/svg">
<rect x="82" width="352" height="12" fill="white"/>
<rect x="82" y="102" width="352" height="12" fill="white"/>
<rect x="82" y="111" width="105" height="12" transform="rotate(-90 82 111)" fill="white"/>
<rect x="136" y="217" width="26" height="10" rx="5" transform="rotate(-90 136 217)" fill="white"/>
<rect x="366" y="216" width="27" height="10" rx="5" transform="rotate(-90 366 216)" fill="white"/>
<rect x="136" y="188.373" width="70.9439" height="10" rx="5" transform="rotate(-0.328782 136 188.373)" fill="white"/>
<rect x="308.578" y="188.387" width="67.406" height="10" rx="5" transform="rotate(-0.328782 308.578 188.387)" fill="white"/>
<rect x="138.577" y="207.356" width="236.23" height="10" rx="4" transform="rotate(-0.328782 138.577 207.356)" fill="white"/>
<rect x="422" y="105" width="105" height="12" transform="rotate(-90 422 105)" fill="white"/>
<rect x="253.314" y="638.485" width="425.577" height="10" rx="5" transform="rotate(-93.1403 253.314 638.485)" fill="white"/>
<rect x="499.686" y="584.411" width="408.23" height="10" rx="5" transform="rotate(-125.435 499.686 584.411)" fill="white"/>
<rect x="2" y="577.403" width="404.252" height="10" rx="5" transform="rotate(-55 2 577.403)" fill="white"/>
<rect x="252.234" y="638.276" width="427.419" height="10" rx="5" transform="rotate(-88.1147 252.234 638.276)" fill="white"/>
<rect x="-1" y="582.257" width="431" height="10" rx="5" transform="rotate(-60 -1 582.257)" fill="white"/>
<rect x="500.5" y="587.257" width="431" height="10" rx="5" transform="rotate(-120 500.5 587.257)" fill="white"/>
<path d="M182.058 105.642C181.661 117.098 183.3 128.528 186.875 139.243C190.45 149.958 195.889 159.737 202.863 167.991C209.837 176.246 218.203 182.805 227.457 187.275C236.711 191.745 246.662 194.032 256.711 194C266.76 193.967 276.699 191.616 285.931 187.086C295.162 182.557 303.496 175.944 310.429 167.644C317.362 159.345 322.752 149.531 326.274 138.793C329.796 128.055 331.378 116.615 330.924 105.161L322.664 105.587C323.068 115.769 321.661 125.94 318.53 135.486C315.399 145.032 310.607 153.757 304.444 161.136C298.28 168.514 290.872 174.393 282.664 178.42C274.457 182.447 265.621 184.537 256.687 184.566C247.754 184.595 238.907 182.561 230.68 178.588C222.453 174.614 215.016 168.783 208.816 161.444C202.616 154.106 197.781 145.412 194.602 135.886C191.424 126.36 189.967 116.199 190.32 106.014L182.058 105.642Z" fill="white"/>
<path d="M157.078 110.049C156.545 123.527 158.744 136.974 163.544 149.58C168.343 162.186 175.643 173.69 185.004 183.402C194.365 193.113 205.595 200.83 218.016 206.088C230.438 211.347 243.794 214.038 257.283 214C270.772 213.961 284.113 211.195 296.504 205.866C308.896 200.538 320.081 192.757 329.388 182.993C338.694 173.229 345.928 161.683 350.656 149.05C355.384 136.417 357.507 122.958 356.898 109.483L347.85 109.893C348.404 122.147 346.473 134.387 342.174 145.876C337.874 157.364 331.295 167.864 322.831 176.744C314.368 185.624 304.196 192.7 292.926 197.546C281.657 202.392 269.524 204.908 257.257 204.942C244.99 204.977 232.843 202.53 221.547 197.748C210.251 192.966 200.038 185.947 191.525 177.116C183.011 168.284 176.373 157.821 172.008 146.357C167.644 134.893 165.644 122.664 166.128 110.407L157.078 110.049Z" fill="white"/>
</svg>
