<svg width="508" height="639" viewBox="0 0 508 639" fill="none" xmlns="http://www.w3.org/2000/svg">
<rect x="72" width="352" height="12" fill="black"/>
<rect x="72" y="102" width="352" height="12" fill="black"/>
<rect x="72" y="111" width="105" height="12" transform="rotate(-90 72 111)" fill="black"/>
<rect x="136" y="216" width="25" height="10" rx="5" transform="rotate(-90 136 216)" fill="black"/>
<rect x="366" y="214" width="25" height="10" rx="5" transform="rotate(-90 366 214)" fill="black"/>
<rect x="136" y="188.373" width="64.9842" height="10" rx="5" transform="rotate(-0.328782 136 188.373)" fill="black"/>
<rect x="311" y="188.373" width="64.9842" height="10" rx="5" transform="rotate(-0.328782 311 188.373)" fill="black"/>
<rect x="141" y="207.342" width="233.806" height="10" transform="rotate(-0.328782 141 207.342)" fill="black"/>
<rect x="412" y="105" width="105" height="12" transform="rotate(-90 412 105)" fill="black"/>
<rect x="253.314" y="638.485" width="425.577" height="10" rx="5" transform="rotate(-93.1403 253.314 638.485)" fill="black"/>
<rect x="501.686" y="587.411" width="408.23" height="10" rx="5" transform="rotate(-125.435 501.686 587.411)" fill="black"/>
<rect x="2" y="577.403" width="408.23" height="10" rx="5" transform="rotate(-55 2 577.403)" fill="black"/>
<rect x="252.234" y="638.276" width="427.419" height="10" rx="5" transform="rotate(-88.1147 252.234 638.276)" fill="black"/>
<rect x="-1" y="582.257" width="431" height="10" rx="5" transform="rotate(-60 -1 582.257)" fill="black"/>
<rect x="500.5" y="587.257" width="431" height="10" rx="5" transform="rotate(-120 500.5 587.257)" fill="black"/>
<path d="M178.058 105.642C177.661 117.098 179.3 128.528 182.875 139.243C186.45 149.958 191.889 159.737 198.863 167.991C205.837 176.246 214.203 182.805 223.457 187.275C232.711 191.745 242.662 194.032 252.711 194C262.76 193.967 272.699 191.616 281.931 187.086C291.163 182.557 299.496 175.944 306.429 167.644C313.362 159.345 318.752 149.531 322.274 138.793C325.796 128.055 327.378 116.615 326.924 105.161L318.664 105.587C319.068 115.769 317.661 125.94 314.53 135.486C311.399 145.032 306.607 153.757 300.444 161.136C294.28 168.514 286.872 174.393 278.664 178.42C270.457 182.447 261.621 184.537 252.687 184.566C243.754 184.595 234.907 182.561 226.68 178.588C218.453 174.614 211.016 168.783 204.816 161.444C198.616 154.106 193.781 145.412 190.602 135.886C187.424 126.36 185.967 116.199 186.32 106.014L178.058 105.642Z" fill="black"/>
<path d="M153.078 110.049C152.545 123.527 154.744 136.974 159.544 149.58C164.343 162.186 171.643 173.69 181.004 183.402C190.365 193.113 201.595 200.83 214.016 206.088C226.438 211.347 239.794 214.038 253.283 214C266.772 213.961 280.113 211.195 292.504 205.866C304.896 200.538 316.081 192.757 325.388 182.993C334.694 173.229 341.928 161.683 346.656 149.05C351.384 136.417 353.507 122.958 352.898 109.483L343.85 109.893C344.404 122.147 342.473 134.387 338.174 145.876C333.874 157.364 327.295 167.864 318.831 176.744C310.368 185.624 300.196 192.7 288.926 197.546C277.657 202.392 265.524 204.908 253.257 204.942C240.99 204.977 228.843 202.53 217.547 197.748C206.251 192.966 196.038 185.947 187.525 177.116C179.011 168.284 172.373 157.821 168.008 146.357C163.644 134.893 161.644 122.664 162.128 110.407L153.078 110.049Z" fill="black"/>
</svg>
