<svg width="812" height="876" viewBox="0 0 812 876" fill="none" xmlns="http://www.w3.org/2000/svg">
<rect x="234.45" y="231.798" width="402.822" height="25" rx="12.5" transform="rotate(14.9103 234.45 231.798)" fill="black"/>
<rect x="536.433" y="205" width="104.678" height="25" rx="12.5" transform="rotate(14.9103 536.433 205)" fill="black"/>
<rect x="660.01" y="239.207" width="68.8962" height="25" rx="12.5" transform="rotate(14.9103 660.01 239.207)" fill="black"/>
<rect x="409.433" y="171" width="104.678" height="25" rx="12.5" transform="rotate(14.9103 409.433 171)" fill="black"/>
<rect x="285.433" y="137" width="104.678" height="25" rx="12.5" transform="rotate(14.9103 285.433 137)" fill="black"/>
<rect x="161.433" y="101" width="104.678" height="25" rx="12.5" transform="rotate(14.9103 161.433 101)" fill="black"/>
<rect x="94.4327" y="82" width="53.8793" height="25" rx="12.5" transform="rotate(14.9103 94.4327 82)" fill="black"/>
<rect x="599" y="535.411" width="200.411" height="25" rx="12.5" transform="rotate(-90 599 535.411)" fill="black"/>
<rect x="231" y="618" width="377" height="25" rx="12.5" transform="rotate(-90 231 618)" fill="black"/>
<rect x="88" y="164" width="79" height="25" rx="12.5" transform="rotate(-90 88 164)" fill="black"/>
<rect x="88" y="292" width="102" height="25" rx="12.5" transform="rotate(-90 88 292)" fill="black"/>
<rect x="88" y="423" width="94" height="25" rx="12.5" transform="rotate(-90 88 423)" fill="black"/>
<rect x="699" y="429" width="94" height="25" rx="12.5" transform="rotate(-90 699 429)" fill="black"/>
<rect x="699" y="309" width="53" height="25" rx="12.5" transform="rotate(-90 699 309)" fill="black"/>
<rect x="699" y="535" width="84" height="25" rx="12.5" transform="rotate(-90 699 535)" fill="black"/>
<rect x="699" y="639" width="79" height="25" rx="12.5" transform="rotate(-90 699 639)" fill="black"/>
<rect x="88" y="547" width="88" height="25" rx="12.5" transform="rotate(-90 88 547)" fill="black"/>
<rect x="88" y="679" width="90" height="25" rx="12.5" transform="rotate(-90 88 679)" fill="black"/>
<rect x="88" y="785" width="74" height="25" rx="12.5" transform="rotate(-90 88 785)" fill="black"/>
<rect x="231" y="602.853" width="398.826" height="25" rx="12.5" transform="rotate(-13.3153 231 602.853)" fill="black"/>
<rect x="572" y="650.01" width="78.2003" height="25" rx="12.5" transform="rotate(-13.3153 572 650.01)" fill="black"/>
<rect x="661" y="628.272" width="60.1138" height="25" rx="12.5" transform="rotate(-13.3153 661 628.272)" fill="black"/>
<rect x="457" y="678.889" width="90.6987" height="25" rx="12.5" transform="rotate(-13.3153 457 678.889)" fill="black"/>
<rect x="340" y="707.889" width="90.6987" height="25" rx="12.5" transform="rotate(-13.3153 340 707.889)" fill="black"/>
<rect x="216" y="736.889" width="90.6987" height="25" rx="12.5" transform="rotate(-13.3153 216 736.889)" fill="black"/>
<rect x="88" y="767.889" width="90.6987" height="25" rx="12.5" transform="rotate(-13.3153 88 767.889)" fill="black"/>
<path d="M200 101C200 156.781 155.228 202 100 202C44.7715 202 0 156.781 0 101C0 45.2192 44.7715 0 100 0C155.228 0 200 45.2192 200 101ZM23.3358 101C23.3358 143.764 57.6595 178.431 100 178.431C142.34 178.431 176.664 143.764 176.664 101C176.664 58.2361 142.34 23.5691 100 23.5691C57.6595 23.5691 23.3358 58.2361 23.3358 101Z" fill="black"/>
<path d="M200 101C200 156.781 155.228 202 100 202C44.7715 202 0 156.781 0 101C0 45.2192 44.7715 0 100 0C155.228 0 200 45.2192 200 101ZM23.3358 101C23.3358 143.764 57.6595 178.431 100 178.431C142.34 178.431 176.664 143.764 176.664 101C176.664 58.2361 142.34 23.5691 100 23.5691C57.6595 23.5691 23.3358 58.2361 23.3358 101Z" fill="black"/>
<path d="M200 101C200 156.781 155.228 202 100 202C44.7715 202 0 156.781 0 101C0 45.2192 44.7715 0 100 0C155.228 0 200 45.2192 200 101ZM23.3358 101C23.3358 143.764 57.6595 178.431 100 178.431C142.34 178.431 176.664 143.764 176.664 101C176.664 58.2361 142.34 23.5691 100 23.5691C57.6595 23.5691 23.3358 58.2361 23.3358 101Z" fill="black"/>
<path d="M200 101C200 156.781 155.228 202 100 202C44.7715 202 0 156.781 0 101C0 45.2192 44.7715 0 100 0C155.228 0 200 45.2192 200 101ZM23.3358 101C23.3358 143.764 57.6595 178.431 100 178.431C142.34 178.431 176.664 143.764 176.664 101C176.664 58.2361 142.34 23.5691 100 23.5691C57.6595 23.5691 23.3358 58.2361 23.3358 101Z" fill="black"/>
<path d="M200 101C200 156.781 155.228 202 100 202C44.7715 202 0 156.781 0 101C0 45.2192 44.7715 0 100 0C155.228 0 200 45.2192 200 101ZM23.3358 101C23.3358 143.764 57.6595 178.431 100 178.431C142.34 178.431 176.664 143.764 176.664 101C176.664 58.2361 142.34 23.5691 100 23.5691C57.6595 23.5691 23.3358 58.2361 23.3358 101Z" fill="black"/>
<path d="M812 627C812 682.781 767.228 728 712 728C656.772 728 612 682.781 612 627C612 571.219 656.772 526 712 526C767.228 526 812 571.219 812 627ZM635.336 627C635.336 669.764 669.66 704.431 712 704.431C754.34 704.431 788.664 669.764 788.664 627C788.664 584.236 754.34 549.569 712 549.569C669.66 549.569 635.336 584.236 635.336 627Z" fill="black"/>
<path d="M812 627C812 682.781 767.228 728 712 728C656.772 728 612 682.781 612 627C612 571.219 656.772 526 712 526C767.228 526 812 571.219 812 627ZM635.336 627C635.336 669.764 669.66 704.431 712 704.431C754.34 704.431 788.664 669.764 788.664 627C788.664 584.236 754.34 549.569 712 549.569C669.66 549.569 635.336 584.236 635.336 627Z" fill="black"/>
<path d="M812 627C812 682.781 767.228 728 712 728C656.772 728 612 682.781 612 627C612 571.219 656.772 526 712 526C767.228 526 812 571.219 812 627ZM635.336 627C635.336 669.764 669.66 704.431 712 704.431C754.34 704.431 788.664 669.764 788.664 627C788.664 584.236 754.34 549.569 712 549.569C669.66 549.569 635.336 584.236 635.336 627Z" fill="black"/>
<path d="M812 627C812 682.781 767.228 728 712 728C656.772 728 612 682.781 612 627C612 571.219 656.772 526 712 526C767.228 526 812 571.219 812 627ZM635.336 627C635.336 669.764 669.66 704.431 712 704.431C754.34 704.431 788.664 669.764 788.664 627C788.664 584.236 754.34 549.569 712 549.569C669.66 549.569 635.336 584.236 635.336 627Z" fill="black"/>
<path d="M812 627C812 682.781 767.228 728 712 728C656.772 728 612 682.781 612 627C612 571.219 656.772 526 712 526C767.228 526 812 571.219 812 627ZM635.336 627C635.336 669.764 669.66 704.431 712 704.431C754.34 704.431 788.664 669.764 788.664 627C788.664 584.236 754.34 549.569 712 549.569C669.66 549.569 635.336 584.236 635.336 627Z" fill="black"/>
<path d="M812 260C812 315.781 767.228 361 712 361C656.772 361 612 315.781 612 260C612 204.219 656.772 159 712 159C767.228 159 812 204.219 812 260ZM635.336 260C635.336 302.764 669.66 337.431 712 337.431C754.34 337.431 788.664 302.764 788.664 260C788.664 217.236 754.34 182.569 712 182.569C669.66 182.569 635.336 217.236 635.336 260Z" fill="black"/>
<path d="M812 260C812 315.781 767.228 361 712 361C656.772 361 612 315.781 612 260C612 204.219 656.772 159 712 159C767.228 159 812 204.219 812 260ZM635.336 260C635.336 302.764 669.66 337.431 712 337.431C754.34 337.431 788.664 302.764 788.664 260C788.664 217.236 754.34 182.569 712 182.569C669.66 182.569 635.336 217.236 635.336 260Z" fill="black"/>
<path d="M812 260C812 315.781 767.228 361 712 361C656.772 361 612 315.781 612 260C612 204.219 656.772 159 712 159C767.228 159 812 204.219 812 260ZM635.336 260C635.336 302.764 669.66 337.431 712 337.431C754.34 337.431 788.664 302.764 788.664 260C788.664 217.236 754.34 182.569 712 182.569C669.66 182.569 635.336 217.236 635.336 260Z" fill="black"/>
<path d="M812 260C812 315.781 767.228 361 712 361C656.772 361 612 315.781 612 260C612 204.219 656.772 159 712 159C767.228 159 812 204.219 812 260ZM635.336 260C635.336 302.764 669.66 337.431 712 337.431C754.34 337.431 788.664 302.764 788.664 260C788.664 217.236 754.34 182.569 712 182.569C669.66 182.569 635.336 217.236 635.336 260Z" fill="black"/>
<path d="M812 260C812 315.781 767.228 361 712 361C656.772 361 612 315.781 612 260C612 204.219 656.772 159 712 159C767.228 159 812 204.219 812 260ZM635.336 260C635.336 302.764 669.66 337.431 712 337.431C754.34 337.431 788.664 302.764 788.664 260C788.664 217.236 754.34 182.569 712 182.569C669.66 182.569 635.336 217.236 635.336 260Z" fill="black"/>
<path d="M200 775C200 830.781 155.228 876 100 876C44.7715 876 0 830.781 0 775C0 719.219 44.7715 674 100 674C155.228 674 200 719.219 200 775ZM23.3358 775C23.3358 817.764 57.6595 852.431 100 852.431C142.34 852.431 176.664 817.764 176.664 775C176.664 732.236 142.34 697.569 100 697.569C57.6595 697.569 23.3358 732.236 23.3358 775Z" fill="black"/>
<path d="M200 775C200 830.781 155.228 876 100 876C44.7715 876 0 830.781 0 775C0 719.219 44.7715 674 100 674C155.228 674 200 719.219 200 775ZM23.3358 775C23.3358 817.764 57.6595 852.431 100 852.431C142.34 852.431 176.664 817.764 176.664 775C176.664 732.236 142.34 697.569 100 697.569C57.6595 697.569 23.3358 732.236 23.3358 775Z" fill="black"/>
<path d="M200 775C200 830.781 155.228 876 100 876C44.7715 876 0 830.781 0 775C0 719.219 44.7715 674 100 674C155.228 674 200 719.219 200 775ZM23.3358 775C23.3358 817.764 57.6595 852.431 100 852.431C142.34 852.431 176.664 817.764 176.664 775C176.664 732.236 142.34 697.569 100 697.569C57.6595 697.569 23.3358 732.236 23.3358 775Z" fill="black"/>
<path d="M200 775C200 830.781 155.228 876 100 876C44.7715 876 0 830.781 0 775C0 719.219 44.7715 674 100 674C155.228 674 200 719.219 200 775ZM23.3358 775C23.3358 817.764 57.6595 852.431 100 852.431C142.34 852.431 176.664 817.764 176.664 775C176.664 732.236 142.34 697.569 100 697.569C57.6595 697.569 23.3358 732.236 23.3358 775Z" fill="black"/>
<path d="M200 775C200 830.781 155.228 876 100 876C44.7715 876 0 830.781 0 775C0 719.219 44.7715 674 100 674C155.228 674 200 719.219 200 775ZM23.3358 775C23.3358 817.764 57.6595 852.431 100 852.431C142.34 852.431 176.664 817.764 176.664 775C176.664 732.236 142.34 697.569 100 697.569C57.6595 697.569 23.3358 732.236 23.3358 775Z" fill="black"/>
</svg>
