<svg width="1107" height="1109" viewBox="0 0 1107 1109" fill="none" xmlns="http://www.w3.org/2000/svg">
<path d="M390 204.5C390 311.919 305.83 399 202 399C98.1705 399 14 311.919 14 204.5C14 97.0806 98.1705 10 202 10C305.83 10 390 97.0806 390 204.5ZM51.6 204.5C51.6 290.436 118.936 360.1 202 360.1C285.064 360.1 352.4 290.436 352.4 204.5C352.4 118.564 285.064 48.9 202 48.9C118.936 48.9 51.6 118.564 51.6 204.5Z" fill="white"/>
<path d="M390 204.5C390 311.919 305.83 399 202 399C98.1705 399 14 311.919 14 204.5C14 97.0806 98.1705 10 202 10C305.83 10 390 97.0806 390 204.5ZM51.6 204.5C51.6 290.436 118.936 360.1 202 360.1C285.064 360.1 352.4 290.436 352.4 204.5C352.4 118.564 285.064 48.9 202 48.9C118.936 48.9 51.6 118.564 51.6 204.5Z" fill="white"/>
<path d="M390 204.5C390 311.919 305.83 399 202 399C98.1705 399 14 311.919 14 204.5C14 97.0806 98.1705 10 202 10C305.83 10 390 97.0806 390 204.5ZM51.6 204.5C51.6 290.436 118.936 360.1 202 360.1C285.064 360.1 352.4 290.436 352.4 204.5C352.4 118.564 285.064 48.9 202 48.9C118.936 48.9 51.6 118.564 51.6 204.5Z" fill="white"/>
<path d="M1107 914.5C1107 1021.92 1022.16 1109 917.5 1109C812.842 1109 728 1021.92 728 914.5C728 807.081 812.842 720 917.5 720C1022.16 720 1107 807.081 1107 914.5ZM765.9 914.5C765.9 1000.44 833.774 1070.1 917.5 1070.1C1001.23 1070.1 1069.1 1000.44 1069.1 914.5C1069.1 828.564 1001.23 758.9 917.5 758.9C833.774 758.9 765.9 828.564 765.9 914.5Z" fill="white"/>
<path d="M1107 914.5C1107 1021.92 1022.16 1109 917.5 1109C812.842 1109 728 1021.92 728 914.5C728 807.081 812.842 720 917.5 720C1022.16 720 1107 807.081 1107 914.5ZM765.9 914.5C765.9 1000.44 833.774 1070.1 917.5 1070.1C1001.23 1070.1 1069.1 1000.44 1069.1 914.5C1069.1 828.564 1001.23 758.9 917.5 758.9C833.774 758.9 765.9 828.564 765.9 914.5Z" fill="white"/>
<path d="M1107 914.5C1107 1021.92 1022.16 1109 917.5 1109C812.842 1109 728 1021.92 728 914.5C728 807.081 812.842 720 917.5 720C1022.16 720 1107 807.081 1107 914.5ZM765.9 914.5C765.9 1000.44 833.774 1070.1 917.5 1070.1C1001.23 1070.1 1069.1 1000.44 1069.1 914.5C1069.1 828.564 1001.23 758.9 917.5 758.9C833.774 758.9 765.9 828.564 765.9 914.5Z" fill="white"/>
<path d="M376 914.5C376 1021.92 291.83 1109 188 1109C84.1705 1109 0 1021.92 0 914.5C0 807.081 84.1705 720 188 720C291.83 720 376 807.081 376 914.5ZM37.6 914.5C37.6 1000.44 104.936 1070.1 188 1070.1C271.064 1070.1 338.4 1000.44 338.4 914.5C338.4 828.564 271.064 758.9 188 758.9C104.936 758.9 37.6 828.564 37.6 914.5Z" fill="white"/>
<path d="M376 914.5C376 1021.92 291.83 1109 188 1109C84.1705 1109 0 1021.92 0 914.5C0 807.081 84.1705 720 188 720C291.83 720 376 807.081 376 914.5ZM37.6 914.5C37.6 1000.44 104.936 1070.1 188 1070.1C271.064 1070.1 338.4 1000.44 338.4 914.5C338.4 828.564 271.064 758.9 188 758.9C104.936 758.9 37.6 828.564 37.6 914.5Z" fill="white"/>
<path d="M376 914.5C376 1021.92 291.83 1109 188 1109C84.1705 1109 0 1021.92 0 914.5C0 807.081 84.1705 720 188 720C291.83 720 376 807.081 376 914.5ZM37.6 914.5C37.6 1000.44 104.936 1070.1 188 1070.1C271.064 1070.1 338.4 1000.44 338.4 914.5C338.4 828.564 271.064 758.9 188 758.9C104.936 758.9 37.6 828.564 37.6 914.5Z" fill="white"/>
<path d="M1107 194.5C1107 301.919 1022.16 389 917.5 389C812.842 389 728 301.919 728 194.5C728 87.0806 812.842 0 917.5 0C1022.16 0 1107 87.0806 1107 194.5ZM765.9 194.5C765.9 280.436 833.774 350.1 917.5 350.1C1001.23 350.1 1069.1 280.436 1069.1 194.5C1069.1 108.564 1001.23 38.9 917.5 38.9C833.774 38.9 765.9 108.564 765.9 194.5Z" fill="white"/>
<path d="M1107 194.5C1107 301.919 1022.16 389 917.5 389C812.842 389 728 301.919 728 194.5C728 87.0806 812.842 0 917.5 0C1022.16 0 1107 87.0806 1107 194.5ZM765.9 194.5C765.9 280.436 833.774 350.1 917.5 350.1C1001.23 350.1 1069.1 280.436 1069.1 194.5C1069.1 108.564 1001.23 38.9 917.5 38.9C833.774 38.9 765.9 108.564 765.9 194.5Z" fill="white"/>
<path d="M1107 194.5C1107 301.919 1022.16 389 917.5 389C812.842 389 728 301.919 728 194.5C728 87.0806 812.842 0 917.5 0C1022.16 0 1107 87.0806 1107 194.5ZM765.9 194.5C765.9 280.436 833.774 350.1 917.5 350.1C1001.23 350.1 1069.1 280.436 1069.1 194.5C1069.1 108.564 1001.23 38.9 917.5 38.9C833.774 38.9 765.9 108.564 765.9 194.5Z" fill="white"/>
<rect x="267.529" y="153" width="40" height="160.493" rx="20" transform="rotate(46.041 267.529 153)" fill="white"/>
<rect x="267.529" y="153" width="40" height="160.493" rx="20" transform="rotate(46.041 267.529 153)" fill="white"/>
<rect x="131" y="850.363" width="40" height="160.493" rx="20" transform="rotate(-45.1602 131 850.363)" fill="white"/>
<rect x="131" y="850.363" width="40" height="160.493" rx="20" transform="rotate(-45.1602 131 850.363)" fill="white"/>
<rect x="842.193" y="963.495" width="40" height="160.493" rx="20" transform="rotate(-134.816 842.193 963.495)" fill="white"/>
<rect x="842.193" y="963.495" width="40" height="160.493" rx="20" transform="rotate(-134.816 842.193 963.495)" fill="white"/>
<rect x="972.933" y="247.585" width="40" height="160.493" rx="20" transform="rotate(135.558 972.933 247.585)" fill="white"/>
<rect x="224" y="244.969" width="40" height="170.673" transform="rotate(-44.3643 224 244.969)" fill="white"/>
<rect x="715" y="740.969" width="40" height="212.213" transform="rotate(-44.3643 715 740.969)" fill="white"/>
<rect x="297.675" y="768.723" width="40" height="135.483" transform="rotate(44.9244 297.675 768.723)" fill="white"/>
<rect x="873.691" y="204" width="40" height="209.142" transform="rotate(44.9244 873.691 204)" fill="white"/>
<path d="M306.739 810.313C341.502 783.003 370.394 745.446 390.892 700.919C411.39 656.392 422.872 606.25 424.335 554.869C425.798 503.488 417.197 452.43 399.284 406.153C381.371 359.876 354.69 319.785 321.57 289.382L299.285 327.487C327.437 353.33 350.116 387.406 365.342 426.742C380.568 466.078 387.878 509.477 386.635 553.151C385.391 596.825 375.632 639.446 358.208 677.293C340.785 715.141 316.227 747.065 286.678 770.278L306.739 810.313Z" fill="white"/>
<path d="M781.107 818.306C743.723 789.348 713.281 749.712 692.588 703.052C671.896 656.393 661.62 604.213 662.709 551.328C663.797 498.442 676.216 446.553 698.818 400.449C721.42 354.344 753.478 315.509 792.034 287.525L812.88 327.612C780.107 351.398 752.857 384.408 733.646 423.597C714.434 462.785 703.879 506.891 702.953 551.843C702.028 596.796 710.762 641.149 728.351 680.809C745.939 720.47 771.815 754.161 803.592 778.775L781.107 818.306Z" fill="white"/>
<path d="M278.645 784.277C306.007 749.389 345.571 720.644 393.278 700.99C440.984 681.335 495.116 671.48 550.121 672.434C605.125 673.388 659.022 685.118 706.281 706.419C753.541 727.721 792.462 757.828 819.052 793.652L769.3 813.351C747.584 784.094 715.797 759.505 677.2 742.108C638.603 724.711 594.585 715.131 549.663 714.352C504.741 713.573 460.531 721.622 421.569 737.674C382.607 753.725 350.295 777.202 327.948 805.695L278.645 784.277Z" fill="white"/>
<path d="M296.042 327.842C324.479 361.239 363.883 388.554 410.426 407.135C456.97 425.715 509.069 434.928 561.663 433.879C614.256 432.829 665.556 421.554 710.578 401.147C755.599 380.741 792.812 351.897 818.601 317.419L772.081 297.621C750.804 326.067 720.102 349.864 682.957 366.701C645.812 383.537 603.487 392.84 560.095 393.706C516.703 394.571 473.718 386.97 435.318 371.641C396.918 356.311 364.407 333.775 340.945 306.221L296.042 327.842Z" fill="white"/>
</svg>
