<svg width="1107" height="1109" viewBox="0 0 1107 1109" fill="none" xmlns="http://www.w3.org/2000/svg">
<path d="M390 204.5C390 311.919 305.83 399 202 399C98.1705 399 14 311.919 14 204.5C14 97.0806 98.1705 10 202 10C305.83 10 390 97.0806 390 204.5ZM51.6 204.5C51.6 290.436 118.936 360.1 202 360.1C285.064 360.1 352.4 290.436 352.4 204.5C352.4 118.564 285.064 48.9 202 48.9C118.936 48.9 51.6 118.564 51.6 204.5Z" fill="black"/>
<path d="M390 204.5C390 311.919 305.83 399 202 399C98.1705 399 14 311.919 14 204.5C14 97.0806 98.1705 10 202 10C305.83 10 390 97.0806 390 204.5ZM51.6 204.5C51.6 290.436 118.936 360.1 202 360.1C285.064 360.1 352.4 290.436 352.4 204.5C352.4 118.564 285.064 48.9 202 48.9C118.936 48.9 51.6 118.564 51.6 204.5Z" fill="black"/>
<path d="M390 204.5C390 311.919 305.83 399 202 399C98.1705 399 14 311.919 14 204.5C14 97.0806 98.1705 10 202 10C305.83 10 390 97.0806 390 204.5ZM51.6 204.5C51.6 290.436 118.936 360.1 202 360.1C285.064 360.1 352.4 290.436 352.4 204.5C352.4 118.564 285.064 48.9 202 48.9C118.936 48.9 51.6 118.564 51.6 204.5Z" fill="black"/>
<path d="M1107 914.5C1107 1021.92 1022.16 1109 917.5 1109C812.842 1109 728 1021.92 728 914.5C728 807.081 812.842 720 917.5 720C1022.16 720 1107 807.081 1107 914.5ZM765.9 914.5C765.9 1000.44 833.774 1070.1 917.5 1070.1C1001.23 1070.1 1069.1 1000.44 1069.1 914.5C1069.1 828.564 1001.23 758.9 917.5 758.9C833.774 758.9 765.9 828.564 765.9 914.5Z" fill="black"/>
<path d="M1107 914.5C1107 1021.92 1022.16 1109 917.5 1109C812.842 1109 728 1021.92 728 914.5C728 807.081 812.842 720 917.5 720C1022.16 720 1107 807.081 1107 914.5ZM765.9 914.5C765.9 1000.44 833.774 1070.1 917.5 1070.1C1001.23 1070.1 1069.1 1000.44 1069.1 914.5C1069.1 828.564 1001.23 758.9 917.5 758.9C833.774 758.9 765.9 828.564 765.9 914.5Z" fill="black"/>
<path d="M1107 914.5C1107 1021.92 1022.16 1109 917.5 1109C812.842 1109 728 1021.92 728 914.5C728 807.081 812.842 720 917.5 720C1022.16 720 1107 807.081 1107 914.5ZM765.9 914.5C765.9 1000.44 833.774 1070.1 917.5 1070.1C1001.23 1070.1 1069.1 1000.44 1069.1 914.5C1069.1 828.564 1001.23 758.9 917.5 758.9C833.774 758.9 765.9 828.564 765.9 914.5Z" fill="black"/>
<path d="M376 914.5C376 1021.92 291.83 1109 188 1109C84.1705 1109 0 1021.92 0 914.5C0 807.081 84.1705 720 188 720C291.83 720 376 807.081 376 914.5ZM37.6 914.5C37.6 1000.44 104.936 1070.1 188 1070.1C271.064 1070.1 338.4 1000.44 338.4 914.5C338.4 828.564 271.064 758.9 188 758.9C104.936 758.9 37.6 828.564 37.6 914.5Z" fill="black"/>
<path d="M376 914.5C376 1021.92 291.83 1109 188 1109C84.1705 1109 0 1021.92 0 914.5C0 807.081 84.1705 720 188 720C291.83 720 376 807.081 376 914.5ZM37.6 914.5C37.6 1000.44 104.936 1070.1 188 1070.1C271.064 1070.1 338.4 1000.44 338.4 914.5C338.4 828.564 271.064 758.9 188 758.9C104.936 758.9 37.6 828.564 37.6 914.5Z" fill="black"/>
<path d="M376 914.5C376 1021.92 291.83 1109 188 1109C84.1705 1109 0 1021.92 0 914.5C0 807.081 84.1705 720 188 720C291.83 720 376 807.081 376 914.5ZM37.6 914.5C37.6 1000.44 104.936 1070.1 188 1070.1C271.064 1070.1 338.4 1000.44 338.4 914.5C338.4 828.564 271.064 758.9 188 758.9C104.936 758.9 37.6 828.564 37.6 914.5Z" fill="black"/>
<path d="M1107 194.5C1107 301.919 1022.16 389 917.5 389C812.842 389 728 301.919 728 194.5C728 87.0806 812.842 0 917.5 0C1022.16 0 1107 87.0806 1107 194.5ZM765.9 194.5C765.9 280.436 833.774 350.1 917.5 350.1C1001.23 350.1 1069.1 280.436 1069.1 194.5C1069.1 108.564 1001.23 38.9 917.5 38.9C833.774 38.9 765.9 108.564 765.9 194.5Z" fill="black"/>
<path d="M1107 194.5C1107 301.919 1022.16 389 917.5 389C812.842 389 728 301.919 728 194.5C728 87.0806 812.842 0 917.5 0C1022.16 0 1107 87.0806 1107 194.5ZM765.9 194.5C765.9 280.436 833.774 350.1 917.5 350.1C1001.23 350.1 1069.1 280.436 1069.1 194.5C1069.1 108.564 1001.23 38.9 917.5 38.9C833.774 38.9 765.9 108.564 765.9 194.5Z" fill="black"/>
<path d="M1107 194.5C1107 301.919 1022.16 389 917.5 389C812.842 389 728 301.919 728 194.5C728 87.0806 812.842 0 917.5 0C1022.16 0 1107 87.0806 1107 194.5ZM765.9 194.5C765.9 280.436 833.774 350.1 917.5 350.1C1001.23 350.1 1069.1 280.436 1069.1 194.5C1069.1 108.564 1001.23 38.9 917.5 38.9C833.774 38.9 765.9 108.564 765.9 194.5Z" fill="black"/>
<rect x="267.529" y="153" width="40" height="160.493" rx="20" transform="rotate(46.041 267.529 153)" fill="black"/>
<rect x="267.529" y="153" width="40" height="160.493" rx="20" transform="rotate(46.041 267.529 153)" fill="black"/>
<rect x="131" y="850.363" width="40" height="160.493" rx="20" transform="rotate(-45.1602 131 850.363)" fill="black"/>
<rect x="131" y="850.363" width="40" height="160.493" rx="20" transform="rotate(-45.1602 131 850.363)" fill="black"/>
<rect x="842.193" y="963.495" width="40" height="160.493" rx="20" transform="rotate(-134.816 842.193 963.495)" fill="black"/>
<rect x="842.193" y="963.495" width="40" height="160.493" rx="20" transform="rotate(-134.816 842.193 963.495)" fill="black"/>
<rect x="972.933" y="247.585" width="40" height="160.493" rx="20" transform="rotate(135.558 972.933 247.585)" fill="black"/>
<rect x="224" y="244.969" width="40" height="170.673" transform="rotate(-44.3643 224 244.969)" fill="black"/>
<rect x="715" y="740.969" width="40" height="212.213" transform="rotate(-44.3643 715 740.969)" fill="black"/>
<rect x="315.351" y="751" width="40" height="160.514" transform="rotate(44.9244 315.351 751)" fill="black"/>
<rect x="873.691" y="204" width="40" height="209.142" transform="rotate(44.9244 873.691 204)" fill="black"/>
<path d="M285.252 836.179C325.498 813.253 360.198 777.436 385.853 732.339C411.508 687.242 427.21 634.46 431.376 579.317C435.542 524.174 428.025 468.619 409.582 418.255C391.14 367.891 362.424 324.5 326.331 292.457L304.531 331C335.21 358.237 359.619 395.12 375.295 437.929C390.971 480.738 397.361 527.96 393.82 574.831C390.279 621.703 376.932 666.568 355.125 704.9C333.319 743.232 303.823 773.677 269.614 793.164L285.252 836.179Z" fill="black"/>
<path d="M796.997 829.69C756.109 802.674 722.157 763.388 698.567 715.793C674.976 668.199 662.581 613.979 662.631 558.603C662.68 503.226 675.174 448.651 698.851 400.381C722.528 352.111 756.551 311.854 797.489 283.668L817.517 324.333C782.719 348.291 753.799 382.51 733.674 423.539C713.549 464.568 702.929 510.957 702.887 558.028C702.844 605.098 713.381 651.184 733.433 691.639C753.485 732.095 782.343 765.488 817.099 788.451L796.997 829.69Z" fill="black"/>
<path d="M288.126 784.514C315.057 749.616 353.988 720.854 400.926 701.181C447.863 681.507 501.118 671.63 555.226 672.561C609.334 673.493 662.348 685.201 708.829 706.483C755.31 727.765 793.585 757.856 819.728 793.669L766.032 815.3C745.146 786.688 714.567 762.647 677.431 745.644C640.296 728.641 597.942 719.288 554.713 718.543C511.485 717.799 468.938 725.691 431.438 741.408C393.938 757.126 362.835 780.104 341.319 807.986L288.126 784.514Z" fill="black"/>
<path d="M288.807 318.906C315.201 353.238 352.919 381.871 398.298 402.024C443.676 422.177 495.172 433.164 547.781 433.918C600.391 434.671 652.326 425.166 698.54 406.326C744.754 387.485 783.675 359.95 811.524 326.395L766.242 305.027C743.266 332.711 711.154 355.429 673.025 370.973C634.896 386.518 592.048 394.36 548.642 393.738C505.237 393.116 462.751 384.051 425.311 367.424C387.872 350.797 356.752 327.173 334.976 298.848L288.807 318.906Z" fill="black"/>
</svg>
