<?xml version="1.0" encoding="UTF-8"?> <svg xmlns="http://www.w3.org/2000/svg" width="437.373" height="437.373" viewBox="0 0 437.373 437.373"><g id="blue-circle-logo" transform="translate(-442.627 -2635.671)"><circle id="Ellipse_374" data-name="Ellipse 374" cx="218.686" cy="218.686" r="218.686" transform="translate(442.627 2635.671)" fill="#042759"></circle><g id="Group_3" data-name="Group 3" transform="translate(590.817 2781.088)"><path id="Path_4" data-name="Path 4" d="M60.649,0l-40.7,7.009c-.029.005-.053.005-.082.011L-37.143,16.84C-26.33,29.617-3.466,38.5,36.053,32.047l52.225-8.939Z" transform="translate(55.473 40.936)" fill="#ffdb44"></path><path id="Path_5" data-name="Path 5" d="M24.71,23.12c0-6.061,6.658-11.179,15.8-12.846L65.222,6.138l-24.335-20.3C9.445-12.321-15.133,3.665-15.133,23.12a30.834,30.834,0,0,0,3.7,14.51L28.778,30.7a9.21,9.21,0,0,1-4.068-7.58" transform="translate(25.686 14.159)" fill="#ffdb44"></path><path id="Path_6" data-name="Path 6" d="M5.8,2.9a4.677,4.677,0,0,1-9.355,0A4.686,4.686,0,0,1,1.12-1.774,4.684,4.684,0,0,1,5.8,2.9M1.12,6.943A4.063,4.063,0,0,0,5.191,2.9a4.074,4.074,0,0,0-4.07-4.06A4.074,4.074,0,0,0-2.942,2.9,4.063,4.063,0,0,0,1.12,6.943M2.176,3.063,3.358,5.456H2.239L1.168,3.215H.191V5.456H-.831V.185h2c.956,0,2.2.255,2.2,1.467a1.478,1.478,0,0,1-1.2,1.411m-1.985-.5h.837c.574,0,1.337-.113,1.337-.85C2.366.935,1.6.825.991.825h-.8Z" transform="translate(150.381 97.132)" fill="#ffdb44"></path><path id="Path_8" data-name="Path 8" d="M10.5,11.956H3.815V-7.322H-6.429l0,27.595H10.5Z" transform="translate(73.267 103.276)" fill="#ffdb44"></path><path id="Path_9" data-name="Path 9" d="M8.914,11.621A4.775,4.775,0,0,1,4.193,7.677v0A5.29,5.29,0,0,1,4.1,6.711a5.223,5.223,0,0,1,.092-.964V5.742a4.805,4.805,0,0,1,9.531.969,4.813,4.813,0,0,1-4.81,4.91M23.321,6.748c0-.013,0-.024,0-.037s0-.026,0-.039c0-.471-.029-.932-.071-1.388-.011-.111-.032-.216-.045-.329-.034-.3-.071-.606-.121-.9h-.011C21.865-2.657,16.157-7.117,8.914-7.117,1.734-7.117-4-2.657-5.212,4.057h-.013c-.053.3-.087.611-.124.921-.011.1-.032.2-.039.3-.045.453-.071.919-.071,1.39,0,.013,0,.026,0,.039s0,.024,0,.037c0,.474.026.935.071,1.39.008.105.029.2.039.305.037.311.071.619.124.919h.013C-4,16.076,1.734,20.539,8.914,20.539c7.243,0,12.951-4.463,14.159-11.176h.011c.05-.295.087-.6.121-.9.013-.111.034-.216.045-.332.042-.45.071-.911.071-1.385" transform="translate(90.593 103.004)" fill="#ffdb44"></path><path id="Path_11" data-name="Path 11" d="M10.556,0V9.323L3.437,0h-9.9V27.6H3.329V19.014L10.52,27.6h9.794V0Z" transform="translate(122.241 95.952)" fill="#ffdb44"></path><path id="Path_12" data-name="Path 12" d="M5.725,7.818c.005-.024.005-.053.011-.079V7.734c.387-2.3,2.156-3.683,6.035-3.683h5.676V-4.427a58.048,58.048,0,0,0-6.206-.361C3.337-4.788-2.835.017-3.445,7.7c-.037.408-.061.827-.061,1.259s.024.848.061,1.261c.611,7.677,6.782,12.488,14.686,12.488a57.809,57.809,0,0,0,6.206-.363V13.866H11.77c-3.894,0-5.711-1.459-6.053-3.847a10.425,10.425,0,0,1-.061-1.061,10.406,10.406,0,0,1,.068-1.14" transform="translate(46.625 101.028)" fill="#ffdb44"></path><path id="Path_14" data-name="Path 14" d="M17.617,0H8.481L3.5,8.928-1.219,0h-9.57l9.373,16.126h.011v11.15H8.239V16.126Z" transform="translate(28.703 96.24)" fill="#ffdb44"></path><path id="Path_15" data-name="Path 15" d="M12.994,11.57v0H7.318c-8.349,0-8.346-9.815,0-9.815h4.829L7.131-7.083l-.342,0C-1.118-7.086-7.287-2.278-7.9,5.4c-.039.413-.061.832-.061,1.261s.021.85.061,1.264c.026.371.079.729.132,1.087,0,.008,0,.018.005.029,1.1,6.969,7.038,11.071,14.549,11.071l2.227,0v.008h7.625V11.57Z" transform="translate(7.958 103.327)" fill="#ffdb44"></path></g></g></svg> 