<?xml version="1.0" standalone="no"?>
<!DOCTYPE svg PUBLIC "-//W3C//DTD SVG 20010904//EN"
 "http://www.w3.org/TR/2001/REC-SVG-20010904/DTD/svg10.dtd">
<svg version="1.0" xmlns="http://www.w3.org/2000/svg"
 width="461.000000pt" height="460.000000pt" viewBox="0 0 461.000000 460.000000"
 preserveAspectRatio="xMidYMid meet">

<g transform="translate(0.000000,460.000000) scale(0.100000,-0.100000)"
fill="#000000" stroke="none">
<path d="M950 4590 c-201 -19 -379 -88 -540 -210 -159 -122 -270 -273 -345
-474 -62 -165 -58 -75 -62 -1536 -3 -881 -1 -1366 6 -1425 13 -109 49 -249 86
-330 129 -286 408 -515 705 -580 130 -28 295 -31 1550 -30 1228 2 1324 4 1435
26 140 28 323 107 383 166 7 7 17 13 22 13 16 0 187 177 227 235 103 152 159
308 183 505 8 68 10 474 8 1420 l-3 1325 -27 100 c-40 150 -72 222 -159 350
-94 140 -230 258 -394 343 -76 39 -127 57 -240 84 -90 22 -97 22 -1420 24
-731 1 -1368 -2 -1415 -6z m377 -904 c115 -63 173 -160 173 -289 0 -125 -70
-230 -190 -285 -115 -54 -249 -27 -349 68 -57 54 -83 117 -89 212 -4 70 -2 83
25 140 35 72 79 120 137 150 65 33 86 38 166 35 60 -3 86 -9 127 -31z m177
-1168 c4 -167 6 -602 4 -968 l-3 -664 -23 -6 c-13 -3 -157 -3 -320 0 l-297 5
-1 960 c-1 528 1 963 3 968 2 4 145 7 317 7 l314 0 6 -302z m926 162 c0 -77 4
-140 9 -140 5 0 17 12 27 28 47 72 172 165 273 203 191 72 481 60 660 -27 98
-48 203 -152 249 -246 87 -179 102 -332 102 -1055 l0 -562 -301 -3 c-166 -2
-305 -1 -309 2 -5 3 -10 264 -12 580 -4 551 -5 578 -25 638 -36 107 -81 156
-175 189 -90 32 -251 13 -328 -39 -44 -30 -84 -88 -112 -163 -23 -59 -23 -67
-26 -632 l-3 -572 -27 -3 c-15 -2 -154 -2 -309 0 l-283 3 0 969 0 970 295 0
295 0 0 -140z"/>
</g>
</svg>
