<svg width="1031" height="800" viewBox="0 0 1031 800" fill="none" xmlns="http://www.w3.org/2000/svg">
<path d="M575 750C575 722.386 597.386 700 625 700H981C1008.61 700 1031 722.386 1031 750V750C1031 777.614 1008.61 800 981 800H625C597.386 800 575 777.614 575 750V750Z" fill="black"/>
<path d="M230 400C230 372.386 252.386 350 280 350H981C1008.61 350 1031 372.386 1031 400V400C1031 427.614 1008.61 450 981 450H280C252.386 450 230 427.614 230 400V400Z" fill="black"/>
<path d="M0 50C0 22.3858 22.3858 0 50 0H981C1008.61 0 1031 22.3858 1031 50V50C1031 77.6142 1008.61 100 981 100H50C22.3858 100 0 77.6142 0 50V50Z" fill="black"/>
</svg>
